{"glyphs":{"0":{"ha":708,"x_min":40,"x_max":669,"o":"m 40 495 q 75 730 40 611 q 188 909 110 848 q 369 970 265 970 q 578 877 503 970 q 669 508 669 762 q 565 76 669 212 q 347 -24 489 -24 q 186 20 250 -24 q 82 168 123 63 q 40 495 40 273 m 246 492 q 254 224 246 304 q 294 81 265 117 q 359 46 323 46 q 436 113 414 46 q 463 485 463 199 q 421 853 463 774 q 351 900 396 900 q 308 885 327 900 q 276 838 289 869 q 254 743 259 798 q 246 492 246 650 z "},"1":{"ha":708,"x_min":125,"x_max":588,"o":"m 125 807 l 125 852 q 316 918 256 895 q 437 970 376 941 l 472 947 q 459 745 463 861 q 454 484 454 629 q 457 121 454 187 q 472 71 459 83 q 558 46 485 58 q 588 40 568 44 l 588 -7 q 364 0 460 0 q 138 -7 265 0 l 138 40 q 251 68 234 55 q 266 102 262 77 q 274 439 274 165 q 273 726 274 664 q 259 803 271 789 q 223 818 248 818 q 125 807 191 818 z "},"2":{"ha":708,"x_min":14,"x_max":673,"o":"m 137 681 l 70 681 q 109 886 106 793 q 233 949 170 928 q 357 970 295 970 q 545 901 473 970 q 617 732 617 831 q 586 584 617 656 q 477 419 554 511 q 222 158 444 379 l 460 158 q 534 164 515 158 q 568 186 552 170 q 608 256 583 203 l 673 256 q 574 -7 608 100 q 285 0 404 0 q 14 -7 157 0 l 14 52 q 240 302 113 146 q 358 461 319 398 q 414 575 397 524 q 431 678 431 627 q 392 791 431 750 q 298 831 354 831 q 208 799 248 831 q 137 681 168 767 z "},"3":{"ha":708,"x_min":43,"x_max":631,"o":"m 155 726 l 90 726 q 129 897 110 786 q 241 952 184 934 q 356 970 298 970 q 522 917 464 970 q 580 778 580 863 q 552 672 580 720 q 451 570 524 625 q 584 482 536 547 q 631 328 631 418 q 548 110 631 208 q 233 -24 434 -24 q 43 10 140 -24 q 62 102 56 67 q 75 222 68 137 l 135 222 q 189 91 148 130 q 289 51 229 51 q 397 104 353 51 q 441 259 441 157 q 376 431 441 375 q 231 472 330 471 l 233 530 q 367 605 325 555 q 410 716 410 654 q 377 802 410 769 q 296 835 345 835 q 213 809 249 835 q 155 726 178 784 z "},"4":{"ha":708,"x_min":3,"x_max":708,"o":"m 240 -7 l 240 37 q 359 65 340 56 q 377 87 372 72 q 389 219 385 111 l 96 219 q 10 216 76 219 q 3 334 9 275 q 274 722 95 460 q 389 895 340 819 q 539 980 463 924 l 574 957 q 556 682 556 795 l 557 418 l 557 351 q 689 365 626 353 l 708 340 q 646 216 673 283 q 557 221 607 221 q 563 92 559 108 q 578 67 566 76 q 658 44 594 56 q 690 37 669 42 l 690 -7 q 465 0 562 0 q 240 -7 364 0 m 390 347 l 390 747 l 117 347 l 390 347 z "},"5":{"ha":708,"x_min":54,"x_max":664,"o":"m 647 954 l 664 932 q 587 787 616 861 q 252 789 454 789 q 220 668 235 730 q 264 669 249 669 q 533 580 437 669 q 629 350 629 491 q 517 84 629 193 q 227 -24 406 -24 q 54 4 144 -24 q 84 218 71 85 l 146 216 q 194 94 163 135 q 288 53 225 53 q 407 110 358 53 q 456 268 456 166 q 391 442 456 376 q 220 507 326 507 q 122 498 184 507 l 90 530 q 201 947 159 708 q 468 941 357 941 q 647 954 569 941 z "},"6":{"ha":708,"x_min":36,"x_max":675,"o":"m 594 975 l 617 904 q 446 807 510 856 q 339 694 382 758 q 260 530 296 630 q 377 613 338 594 q 447 632 415 632 q 605 552 534 632 q 675 343 675 473 q 606 116 675 219 q 346 -24 513 -24 q 122 72 209 -24 q 36 338 36 167 q 97 602 36 474 q 286 827 157 729 q 594 975 415 924 m 229 315 q 284 104 229 181 q 376 54 321 54 q 459 98 426 54 q 492 254 492 142 q 442 453 492 385 q 353 500 408 500 q 265 456 302 500 q 229 315 229 412 z "},"7":{"ha":708,"x_min":54,"x_max":669,"o":"m 120 693 l 54 693 q 155 955 120 850 q 429 947 290 947 q 669 955 559 947 l 669 893 l 503 420 q 435 209 469 320 q 368 -24 401 98 q 269 -18 311 -18 q 184 -23 227 -18 l 167 -1 q 272 207 210 80 q 545 783 349 365 l 227 783 q 178 771 193 783 q 120 693 157 756 z "},"8":{"ha":708,"x_min":55,"x_max":659,"o":"m 229 462 q 105 590 137 535 q 73 713 73 644 q 155 896 73 822 q 380 970 238 970 q 570 915 506 970 q 633 773 633 859 q 601 662 633 712 q 467 536 569 612 q 621 391 583 450 q 659 257 659 332 q 573 57 659 138 q 336 -24 487 -24 q 125 39 195 -24 q 55 201 55 102 q 90 330 55 275 q 229 462 125 386 m 399 586 q 457 657 442 627 q 483 761 483 709 q 449 861 483 825 q 358 897 414 897 q 273 865 305 897 q 241 783 241 833 q 270 704 241 744 q 399 586 298 664 m 300 409 q 249 334 264 368 q 225 220 225 278 q 266 94 225 140 q 360 48 306 48 q 443 85 409 48 q 477 182 477 123 q 441 285 477 235 q 300 409 406 336 z "},"9":{"ha":708,"x_min":31,"x_max":677,"o":"m 122 -35 l 97 35 q 272 135 200 77 q 392 277 345 194 q 446 412 422 330 q 325 326 349 338 q 266 315 300 315 q 103 398 175 315 q 31 616 31 482 q 73 795 31 710 q 195 925 116 880 q 372 970 273 970 q 594 880 511 970 q 677 621 677 790 q 623 363 677 490 q 431 115 557 213 q 122 -35 305 16 m 218 701 q 270 502 218 572 q 361 453 306 453 q 448 497 413 453 q 482 643 482 541 q 461 782 482 722 q 407 867 440 842 q 338 891 374 891 q 253 848 288 891 q 218 701 218 804 z "}," ":{"ha":354,"x_min":0,"x_max":0,"o":""},"!":{"ha":478,"x_min":117,"x_max":363,"o":"m 330 975 l 363 949 q 267 276 325 739 l 203 276 q 119 901 153 700 q 330 975 250 942 m 237 217 q 322 182 287 217 q 357 96 357 146 q 322 12 357 47 q 237 -24 287 -24 q 152 12 187 -24 q 117 96 117 47 q 152 182 117 146 q 237 217 186 217 z "},"\"":{"ha":766,"x_min":120,"x_max":648,"o":"m 564 489 l 531 489 l 462 749 q 446 840 446 808 q 476 911 446 881 q 549 941 506 941 q 622 909 597 941 q 648 840 648 877 q 630 749 648 819 l 564 489 m 237 489 l 204 489 l 134 750 q 120 838 120 800 q 149 911 120 882 q 220 941 178 941 q 291 912 262 941 q 320 840 320 884 q 304 749 320 812 l 237 489 z "},"#":{"ha":926,"x_min":55,"x_max":871,"o":"m 55 679 l 269 679 l 326 944 l 437 944 l 380 679 l 637 679 l 693 944 l 806 944 l 749 679 l 871 679 l 871 567 l 727 567 l 681 345 l 871 345 l 871 233 l 659 233 l 603 -31 l 490 -31 l 547 233 l 288 233 l 234 -31 l 121 -31 l 177 233 l 55 233 l 55 345 l 200 345 l 246 567 l 55 567 l 55 679 m 358 567 l 312 346 l 570 346 l 616 567 l 358 567 z "},"$":{"ha":694,"x_min":52,"x_max":641,"o":"m 308 1015 l 382 1015 l 382 944 q 510 927 455 941 q 621 884 566 913 q 574 693 586 795 l 512 701 q 480 830 511 792 q 377 879 450 869 l 377 580 q 549 452 517 480 q 618 366 596 410 q 641 257 641 321 q 571 80 641 158 q 377 -22 502 2 l 377 -135 l 299 -135 l 299 -26 q 52 17 170 -24 q 87 228 72 100 l 145 228 q 194 91 156 132 q 304 43 231 49 l 304 387 l 195 471 q 121 538 140 514 q 79 609 94 571 q 65 686 65 647 q 87 783 65 736 q 143 862 109 830 q 213 911 178 895 q 308 938 249 927 l 308 1015 m 308 872 q 245 828 266 857 q 225 762 225 800 q 242 700 225 728 q 308 631 259 671 l 308 872 m 373 51 q 448 105 423 71 q 472 185 472 140 q 450 257 472 222 q 373 334 429 292 l 373 51 z "},"%":{"ha":1143,"x_min":47,"x_max":1096,"o":"m 47 687 q 107 901 47 831 q 260 970 167 970 q 401 910 349 970 q 453 713 453 849 q 393 509 453 576 q 240 442 334 442 q 98 500 150 442 q 47 687 47 557 m 181 690 q 202 527 181 560 q 250 494 222 494 q 294 523 278 494 q 320 726 320 568 q 295 888 320 847 q 251 916 278 916 q 200 877 214 916 q 181 690 186 838 m 795 970 l 896 970 l 350 -55 l 249 -55 l 795 970 m 690 207 q 751 406 690 337 q 907 474 812 474 q 1045 413 994 474 q 1096 223 1096 353 q 1037 14 1096 82 q 884 -55 979 -55 q 742 6 793 -55 q 690 207 690 67 m 825 204 q 850 24 825 67 q 893 -1 864 -1 q 936 24 923 -1 q 962 232 962 71 q 937 395 962 353 q 893 419 922 419 q 852 394 867 419 q 825 204 825 345 z "},"&":{"ha":1114,"x_min":37,"x_max":1094,"o":"m 710 570 l 710 614 q 862 606 793 606 q 1034 614 923 606 l 1034 566 q 949 545 977 559 q 901 506 921 530 q 850 427 886 489 q 745 259 802 342 q 853 166 801 195 q 943 137 905 137 q 994 148 969 137 q 1057 189 1019 159 l 1094 142 q 929 7 999 48 q 844 -17 886 -17 q 741 12 794 -17 q 614 113 687 40 q 455 8 519 34 q 305 -17 391 -17 q 106 50 176 -17 q 37 218 37 116 q 69 341 37 283 q 156 442 102 400 q 328 541 211 484 q 278 660 290 619 q 267 740 267 701 q 339 910 267 844 q 538 975 411 975 q 676 934 631 975 q 722 822 722 892 q 679 692 722 750 q 529 570 635 633 q 691 320 614 413 q 753 429 733 377 q 772 513 772 480 q 762 544 772 532 q 710 570 751 557 m 499 633 q 568 699 549 667 q 595 798 595 745 q 571 883 595 853 q 513 912 547 912 q 463 889 482 912 q 443 817 443 866 q 453 749 443 786 q 499 633 463 712 m 357 482 q 266 410 293 446 q 227 292 227 356 q 280 166 227 220 q 401 112 334 112 q 479 125 442 112 q 562 171 516 139 q 467 298 505 241 q 357 482 440 336 z "},"'":{"ha":390,"x_min":95,"x_max":295,"o":"m 212 490 l 180 490 l 109 749 q 95 836 95 798 q 124 911 95 882 q 195 941 153 941 q 266 912 237 941 q 295 839 295 884 q 279 749 295 810 l 212 490 z "},"(":{"ha":463,"x_min":45,"x_max":433,"o":"m 433 990 l 433 923 q 340 793 372 854 q 271 586 296 709 q 245 326 245 463 q 283 36 245 168 q 356 -140 313 -69 q 433 -228 380 -180 l 433 -292 q 248 -177 323 -248 q 93 54 140 -77 q 45 331 45 185 q 154 736 45 560 q 433 990 262 911 z "},")":{"ha":463,"x_min":30,"x_max":418,"o":"m 30 -292 l 30 -225 q 123 -96 92 -157 q 192 112 166 -11 q 218 372 218 235 q 180 662 218 530 q 106 838 151 767 q 30 926 82 878 l 30 990 q 216 875 139 946 q 370 644 322 775 q 418 367 418 513 q 309 -38 418 138 q 30 -292 200 -214 z "},"*":{"ha":665,"x_min":45,"x_max":623,"o":"m 253 989 l 417 989 l 358 743 l 574 876 l 623 720 l 375 701 l 562 538 l 431 443 l 333 676 l 237 443 l 103 538 l 294 701 l 45 724 l 98 876 l 312 743 l 253 989 z "},"+":{"ha":926,"x_min":88,"x_max":838,"o":"m 88 517 l 399 517 l 399 830 l 525 830 l 525 517 l 838 517 l 838 392 l 525 392 l 525 82 l 399 82 l 399 392 l 88 392 l 88 517 z "},",":{"ha":478,"x_min":102,"x_max":364,"o":"m 132 29 l 102 65 q 143 116 115 81 q 225 224 186 169 q 327 157 289 205 q 364 45 364 108 q 312 -126 364 -33 q 152 -315 260 -219 l 102 -266 q 203 -115 178 -166 q 219 -43 219 -81 q 200 13 219 -7 q 158 34 182 34 q 132 29 149 34 z "},"-":{"ha":492,"x_min":37,"x_max":451,"o":"m 54 238 l 37 257 q 79 397 64 329 q 227 393 146 393 q 435 397 352 393 l 451 377 q 407 238 425 310 q 182 242 302 242 q 54 238 106 242 z "},".":{"ha":478,"x_min":117,"x_max":361,"o":"m 239 220 q 326 184 290 220 q 361 98 361 149 q 326 12 361 47 q 239 -24 290 -24 q 153 12 189 -24 q 117 98 117 47 q 153 184 117 149 q 239 220 189 220 z "},"/":{"ha":782,"x_min":76,"x_max":705,"o":"m 571 967 l 705 967 l 210 -25 l 76 -25 l 571 967 z "},":":{"ha":478,"x_min":117,"x_max":361,"o":"m 239 665 q 326 629 290 665 q 361 543 361 593 q 326 456 361 492 q 239 420 290 420 q 153 456 189 420 q 117 543 117 492 q 153 629 117 593 q 239 665 189 665 m 239 220 q 326 184 290 220 q 361 98 361 149 q 326 12 361 47 q 239 -24 290 -24 q 153 12 189 -24 q 117 98 117 47 q 153 184 117 149 q 239 220 189 220 z "},";":{"ha":478,"x_min":102,"x_max":364,"o":"m 240 665 q 326 629 291 665 q 361 543 361 593 q 326 456 361 492 q 240 420 290 420 q 154 456 189 420 q 118 543 118 492 q 153 629 118 593 q 240 665 189 665 m 132 29 l 102 65 q 143 116 115 81 q 225 224 186 169 q 327 157 289 205 q 364 45 364 108 q 312 -126 364 -33 q 152 -315 260 -219 l 102 -266 q 203 -115 178 -166 q 219 -43 219 -81 q 200 13 219 -7 q 158 34 182 34 q 132 29 149 34 z "},"<":{"ha":926,"x_min":89,"x_max":837,"o":"m 837 86 l 89 399 l 89 512 l 837 825 l 837 690 l 259 456 l 837 222 l 837 86 z "},"=":{"ha":926,"x_min":89,"x_max":837,"o":"m 89 680 l 837 680 l 837 555 l 89 555 l 89 680 m 89 359 l 837 359 l 837 233 l 89 233 l 89 359 z "},">":{"ha":926,"x_min":89,"x_max":837,"o":"m 89 825 l 837 512 l 837 399 l 89 86 l 89 221 l 667 455 l 89 689 l 89 825 z "},"?":{"ha":564,"x_min":31,"x_max":516,"o":"m 88 715 l 31 715 q 61 921 54 827 q 282 975 191 975 q 458 913 400 975 q 516 769 516 850 q 504 697 516 732 q 463 616 492 662 q 385 514 448 593 q 315 425 322 435 q 291 371 302 404 q 271 277 279 338 l 202 277 q 220 428 204 364 q 287 601 236 492 q 326 729 326 684 q 297 808 326 778 q 222 838 267 838 q 148 813 178 838 q 88 715 117 789 m 246 218 q 332 182 296 218 q 367 97 367 147 q 332 12 367 47 q 246 -24 296 -24 q 161 12 197 -24 q 125 97 125 47 q 161 182 125 147 q 246 218 196 218 z "},"@":{"ha":1287,"x_min":62,"x_max":1261,"o":"m 800 627 l 965 634 l 841 208 q 820 104 820 138 q 836 65 820 81 q 876 49 852 49 q 996 103 922 49 q 1118 257 1069 157 q 1167 470 1167 357 q 1047 778 1167 657 q 733 898 926 898 q 430 820 566 898 q 214 592 294 741 q 134 272 134 443 q 283 -112 134 37 q 664 -262 433 -262 q 1006 -159 854 -262 q 1220 112 1157 -57 l 1261 112 q 1024 -194 1180 -87 q 663 -300 869 -300 q 232 -131 401 -300 q 62 296 62 37 q 147 625 62 473 q 384 859 231 777 q 718 941 536 941 q 981 881 869 941 q 1150 712 1094 821 q 1206 482 1206 604 q 1146 227 1206 343 q 995 56 1086 111 q 800 0 904 0 q 696 33 731 0 q 661 121 661 66 q 677 214 661 155 q 591 86 622 121 q 506 15 549 38 q 444 0 478 0 q 362 38 395 0 q 330 153 330 77 q 367 345 330 248 q 465 514 404 442 q 600 629 526 586 q 680 653 641 653 q 743 629 718 653 q 777 547 768 606 l 800 627 m 699 604 q 661 589 681 604 q 605 513 640 574 q 537 353 570 452 q 505 188 505 254 q 517 140 505 157 q 544 124 530 124 q 598 157 564 124 q 701 320 657 214 q 745 513 745 427 q 730 582 745 561 q 699 604 715 604 z "},"A":{"ha":1084,"x_min":2,"x_max":1082,"o":"m 605 -7 l 605 43 q 700 67 687 58 q 713 93 713 77 q 709 115 713 102 q 638 286 698 143 q 479 288 543 288 q 304 286 427 288 q 229 91 229 108 q 240 67 229 75 q 336 43 251 59 l 336 -7 q 173 0 251 0 q 2 -7 89 0 l 2 43 q 86 72 63 56 q 115 104 102 83 q 273 435 141 147 q 511 975 356 618 l 566 975 q 827 380 629 816 q 958 105 937 138 q 988 73 973 82 q 1082 43 1003 63 l 1082 -7 q 859 0 962 0 q 605 -7 758 0 m 475 683 l 336 363 l 471 363 q 609 363 519 363 l 475 683 z "},"B":{"ha":911,"x_min":6,"x_max":850,"o":"m 6 905 l 6 955 q 284 947 171 947 q 429 950 328 947 q 516 951 476 951 q 724 909 660 951 q 808 745 808 853 q 744 589 808 652 q 599 510 696 541 q 739 479 686 503 q 821 406 791 455 q 850 292 850 357 q 805 141 850 211 q 667 33 759 71 q 432 -5 576 -5 q 334 -3 393 -5 q 231 1 258 1 q 6 -7 179 1 l 6 43 l 119 67 q 142 79 134 72 q 153 100 149 87 q 159 218 159 121 q 161 536 161 389 q 157 794 161 618 q 145 864 156 846 q 124 880 139 873 q 6 905 118 882 m 361 534 l 395 534 q 556 581 506 534 q 606 719 606 627 q 565 840 606 798 q 443 881 523 881 q 361 874 410 881 l 361 534 m 361 463 l 361 79 q 444 71 406 71 q 584 121 537 71 q 631 275 631 171 q 578 423 631 382 q 395 463 524 463 l 361 463 z "},"C":{"ha":1055,"x_min":62,"x_max":978,"o":"m 943 179 l 978 114 q 761 4 861 37 q 553 -28 662 -28 q 193 103 324 -28 q 62 454 62 233 q 210 832 62 689 q 618 975 357 975 q 780 962 702 975 q 972 913 857 949 q 968 821 968 869 q 978 621 968 739 l 903 621 q 859 773 869 751 q 776 859 833 824 q 621 895 719 895 q 392 804 473 895 q 294 502 294 694 q 392 198 294 302 q 654 94 489 94 q 943 179 800 94 z "},"D":{"ha":1143,"x_min":16,"x_max":1086,"o":"m 16 905 l 16 955 q 277 947 174 947 q 495 951 356 947 q 664 955 596 955 q 866 922 791 955 q 1028 785 969 878 q 1086 544 1086 692 q 1010 252 1086 380 q 794 52 933 124 q 513 -8 678 -8 q 387 -4 497 -8 q 262 1 276 1 q 16 -7 215 1 l 16 43 l 45 48 q 149 77 134 64 q 167 117 164 91 q 170 529 170 157 q 165 837 170 802 q 148 871 161 861 q 45 899 134 882 l 16 905 m 380 83 q 518 69 463 69 q 753 161 674 69 q 854 504 854 279 q 765 796 854 696 q 538 878 692 878 q 380 865 473 878 q 374 472 374 759 q 380 83 374 307 z "},"E":{"ha":926,"x_min":11,"x_max":899,"o":"m 11 905 l 11 955 q 366 947 174 947 q 825 955 589 947 q 842 707 827 812 l 784 707 q 772 741 776 729 q 720 853 739 838 q 635 869 701 869 l 376 869 q 369 536 370 754 l 487 534 q 601 552 579 534 q 646 673 622 570 l 702 673 q 694 498 694 574 q 702 317 694 425 l 646 317 q 609 443 627 427 q 503 459 591 459 l 370 459 l 370 80 l 640 80 q 699 85 684 80 q 743 117 723 94 q 840 260 784 162 l 899 260 q 814 -7 860 149 q 331 0 583 0 q 11 -7 216 0 l 11 43 q 140 75 123 63 q 162 154 162 91 l 162 177 l 163 446 l 163 663 l 163 763 q 155 853 163 836 q 126 881 148 871 q 11 905 105 891 z "},"F":{"ha":868,"x_min":9,"x_max":850,"o":"m 9 905 l 9 955 q 341 947 235 947 q 831 955 622 947 q 850 688 836 804 l 794 688 l 787 709 q 735 836 759 801 q 706 857 725 850 q 631 863 687 863 l 371 863 l 371 536 l 489 536 q 575 543 557 536 q 602 566 592 549 q 637 677 618 593 l 693 677 q 685 481 685 574 q 693 313 685 397 l 637 313 q 606 432 614 412 q 584 452 598 446 q 493 460 566 460 l 371 460 l 371 156 q 377 87 371 101 q 399 68 384 74 q 509 47 425 57 q 541 43 520 46 l 541 -7 q 260 0 374 0 q 9 -7 146 0 l 9 43 q 141 75 126 63 q 159 120 157 87 q 163 491 161 144 l 162 674 l 162 730 q 157 849 162 831 q 140 875 152 867 q 37 900 124 884 q 9 905 28 901 z "},"G":{"ha":1186,"x_min":61,"x_max":1164,"o":"m 1164 492 l 1164 443 q 1046 414 1071 426 q 1027 391 1034 408 q 1021 286 1021 374 q 1025 39 1021 146 q 924 20 979 31 q 717 -20 781 -12 q 581 -28 654 -28 q 314 14 412 -28 q 126 180 191 68 q 61 446 61 292 q 264 869 61 721 q 647 975 409 975 q 1006 929 806 975 q 1005 865 1005 889 q 1012 640 1005 785 l 943 640 q 885 796 914 752 q 796 866 857 840 q 648 892 735 892 q 456 845 533 892 q 337 700 379 798 q 294 475 294 602 q 390 167 294 271 q 643 62 486 62 q 813 98 722 62 l 813 307 q 806 395 813 375 q 788 414 802 407 q 701 437 774 422 q 675 443 692 439 l 675 492 q 910 485 831 485 q 1164 492 968 485 z "},"H":{"ha":1114,"x_min":11,"x_max":1106,"o":"m 11 905 l 11 955 q 260 947 134 947 q 522 955 393 947 l 522 905 q 401 879 419 887 q 376 855 383 871 q 369 756 369 839 l 370 709 l 369 535 q 575 532 465 532 q 748 535 674 532 l 747 776 q 739 857 747 840 q 711 881 732 873 q 595 905 694 888 l 595 955 q 836 947 726 947 q 1106 955 939 947 l 1106 905 l 998 882 q 974 870 981 877 q 963 853 966 863 q 955 713 956 831 q 954 469 954 526 q 957 127 954 237 q 974 76 958 90 q 1080 47 989 61 l 1106 43 l 1106 -7 q 851 0 963 0 q 595 -7 741 0 l 595 43 l 709 66 q 738 86 729 73 q 746 149 746 100 l 748 448 l 562 451 q 369 448 549 451 q 373 117 370 171 q 390 74 375 87 q 493 47 406 60 q 522 43 503 46 l 522 -7 q 252 0 372 0 q 11 -7 130 0 l 11 43 q 124 68 104 61 q 152 89 144 75 q 161 153 161 104 l 163 418 q 161 771 163 625 q 150 861 161 843 q 129 880 144 873 q 11 905 113 886 z "},"I":{"ha":534,"x_min":14,"x_max":524,"o":"m 524 955 l 524 905 l 499 901 q 391 874 409 890 q 373 811 373 858 l 373 787 l 372 559 l 372 300 l 373 168 q 379 94 373 109 q 399 72 385 79 q 499 47 423 59 q 524 43 507 45 l 524 -7 q 279 0 385 0 q 14 -7 179 0 l 14 43 q 130 66 119 62 q 153 84 145 73 q 164 148 163 100 q 165 531 165 260 l 163 778 l 163 798 q 148 868 163 852 q 43 899 132 884 q 14 905 33 901 l 14 955 q 275 947 188 947 q 524 955 368 947 z "},"J":{"ha":652,"x_min":38,"x_max":653,"o":"m 145 905 l 145 955 q 408 947 309 947 q 653 955 509 947 l 653 905 l 555 885 q 523 872 531 879 q 514 859 517 867 q 506 790 507 841 q 505 514 505 739 l 505 404 q 498 210 505 252 q 448 85 487 138 q 343 2 410 32 q 196 -28 277 -28 q 38 0 128 -28 q 59 256 55 91 l 127 256 q 168 81 138 121 q 227 50 189 50 q 287 106 273 50 q 296 522 296 146 q 293 837 296 811 q 279 871 290 862 q 145 905 262 884 z "},"K":{"ha":1084,"x_min":11,"x_max":1099,"o":"m 11 905 l 11 955 q 269 947 142 947 q 524 955 399 947 l 524 905 l 412 882 q 382 861 391 874 q 373 800 373 847 l 372 490 q 665 800 576 691 q 707 868 707 852 q 693 886 707 880 q 607 905 687 888 l 607 955 q 817 947 736 947 q 1014 955 897 947 l 1014 905 q 884 874 916 890 q 785 791 852 858 l 552 553 q 709 363 605 486 q 852 191 795 262 q 951 93 909 119 q 1099 43 993 67 l 1099 -7 q 834 0 968 0 q 574 -7 699 0 l 574 43 q 653 61 635 50 q 664 81 664 68 q 640 123 664 92 l 372 473 l 372 427 l 372 214 q 378 92 372 113 q 397 70 382 78 q 498 47 412 61 q 524 43 507 46 l 524 -7 q 291 0 395 0 q 11 -7 203 0 l 11 43 q 146 77 127 62 q 161 111 159 86 q 164 499 164 146 q 161 828 164 798 q 146 869 158 859 q 11 905 129 884 z "},"L":{"ha":926,"x_min":9,"x_max":903,"o":"m 9 905 l 9 955 q 279 947 182 947 q 543 955 378 947 l 543 905 q 391 878 404 884 q 371 819 371 866 l 369 644 l 369 80 l 616 80 q 697 88 677 80 q 751 130 725 100 q 842 268 777 159 l 903 268 q 814 -7 857 142 q 334 0 526 0 q 9 -7 178 0 l 9 43 q 142 75 130 66 q 157 108 154 84 q 160 433 160 132 l 159 680 l 159 724 q 152 854 159 832 q 133 877 146 870 q 9 905 120 883 z "},"M":{"ha":1360,"x_min":7,"x_max":1350,"o":"m 7 905 l 7 955 q 207 947 128 947 q 389 955 291 947 q 464 772 418 878 q 687 288 590 487 l 858 657 q 923 805 899 747 q 981 955 947 863 q 1168 947 1109 947 q 1350 955 1218 947 l 1350 905 q 1319 899 1329 901 q 1218 872 1232 884 q 1200 822 1204 860 q 1196 514 1196 783 q 1197 157 1196 172 q 1205 92 1199 104 q 1219 74 1211 79 q 1319 49 1243 60 l 1350 43 l 1350 -7 q 1099 0 1185 0 q 837 -7 1010 0 l 837 43 q 957 68 944 62 q 977 83 970 74 q 986 109 984 93 q 989 248 989 125 q 990 665 990 515 q 989 753 990 679 q 717 151 952 676 l 648 0 l 596 0 q 251 758 519 173 q 250 608 250 669 q 256 160 250 269 q 262 90 259 98 q 283 69 267 77 q 375 48 298 61 q 403 43 385 46 l 403 -7 q 217 0 307 0 q 12 -7 127 0 l 12 43 q 119 65 100 58 q 147 87 138 72 q 157 146 157 103 l 165 577 q 167 745 167 690 q 158 857 167 830 q 137 881 153 873 q 39 900 122 889 q 7 905 28 901 z "},"N":{"ha":1114,"x_min":4,"x_max":1105,"o":"m 4 905 l 4 955 q 177 947 97 947 q 367 955 258 947 q 865 340 450 844 l 862 709 q 851 859 859 844 q 828 883 844 874 q 713 905 812 891 l 713 955 q 904 947 823 947 q 1105 955 983 947 l 1105 905 q 1074 899 1084 901 q 978 872 994 887 q 960 812 962 858 q 953 422 953 718 q 960 -12 953 232 q 897 -35 928 -22 l 640 290 l 248 766 l 250 444 l 256 131 q 262 86 258 96 q 276 72 267 77 q 372 48 291 63 q 401 43 382 47 l 401 -7 q 214 0 284 0 q 9 -7 153 0 l 9 43 q 41 49 30 47 q 134 73 119 61 q 147 94 143 80 q 156 296 151 108 q 163 762 163 568 q 156 846 163 827 q 131 874 149 864 q 38 898 113 884 q 4 905 26 900 z "},"O":{"ha":1129,"x_min":59,"x_max":1069,"o":"m 59 458 q 202 833 59 691 q 585 975 345 975 q 940 847 811 975 q 1069 505 1069 720 q 1019 257 1069 369 q 915 107 979 168 q 785 16 852 46 q 547 -28 686 -28 q 187 100 315 -28 q 59 458 59 229 m 294 495 q 383 132 294 248 q 574 45 450 45 q 718 90 659 45 q 806 231 777 134 q 835 457 835 328 q 817 646 835 555 q 769 787 800 736 q 687 869 739 838 q 564 900 636 900 q 420 855 483 900 q 325 713 357 810 q 294 495 294 616 z "},"P":{"ha":868,"x_min":9,"x_max":825,"o":"m 9 905 l 9 955 q 304 947 197 947 l 532 951 q 692 929 633 951 q 788 850 751 907 q 825 710 825 792 q 735 493 825 578 q 490 408 646 408 q 370 420 442 408 q 372 210 372 238 l 371 160 q 382 82 371 95 q 507 47 399 60 q 544 43 519 46 l 544 -7 q 264 0 350 0 q 9 -7 164 0 l 9 43 q 143 76 129 64 q 159 121 157 88 q 164 489 162 155 l 163 694 q 159 840 163 819 q 141 871 155 862 q 39 899 123 884 q 9 905 29 901 m 370 496 q 441 492 412 492 q 564 541 520 492 q 608 690 608 589 q 565 825 608 779 q 441 871 522 871 q 370 865 411 871 l 370 496 z "},"Q":{"ha":1129,"x_min":60,"x_max":1166,"o":"m 193 92 q 103 229 132 159 q 60 458 60 334 q 176 805 60 667 q 588 975 320 975 q 940 848 812 975 q 1069 504 1069 720 q 932 124 1069 268 q 592 -20 795 -20 q 450 0 532 -20 q 805 -126 669 -91 q 943 -146 878 -146 q 1030 -137 988 -146 q 1142 -104 1073 -129 l 1166 -153 q 955 -272 1033 -238 q 871 -291 909 -291 q 784 -275 834 -291 q 641 -212 713 -253 q 456 -93 598 -189 q 297 -5 363 -30 q 121 33 231 19 l 121 101 q 193 92 155 98 m 295 507 q 386 132 295 249 q 583 45 452 45 q 758 124 697 45 q 836 466 836 226 q 751 814 836 705 q 568 900 685 900 q 417 852 481 900 q 323 706 352 804 q 295 507 295 609 z "},"R":{"ha":1013,"x_min":8,"x_max":1029,"o":"m 8 905 l 8 955 q 279 947 237 947 q 406 950 323 947 q 529 952 490 952 q 686 926 630 952 q 777 844 743 901 q 811 719 811 788 q 787 605 811 660 q 722 513 762 551 q 637 458 695 488 q 772 234 683 379 q 857 106 837 127 q 900 74 877 85 q 1029 43 935 58 l 1029 -7 q 841 0 913 0 q 652 -7 764 0 q 440 429 570 183 q 359 434 401 430 l 361 152 q 370 87 363 100 q 391 69 378 75 q 513 43 401 64 l 513 -7 q 259 0 355 0 q 8 -7 165 0 l 8 43 q 138 75 123 64 q 157 121 153 87 q 159 469 159 139 l 159 671 q 153 842 159 813 q 135 874 149 863 q 39 899 120 884 l 8 905 m 360 511 q 410 509 394 509 q 550 554 505 509 q 595 692 595 600 q 553 824 595 779 q 437 870 510 870 q 359 865 407 870 l 360 511 z "},"S":{"ha":766,"x_min":70,"x_max":720,"o":"m 678 680 l 610 680 q 543 854 588 810 q 419 899 497 899 q 310 862 349 899 q 271 770 271 826 q 307 679 271 720 q 478 576 343 637 q 667 448 613 515 q 720 278 720 379 q 628 64 720 156 q 332 -28 536 -28 q 193 -17 258 -28 q 71 14 144 -9 q 82 250 82 134 l 82 295 l 149 295 q 212 115 174 160 q 353 53 263 53 q 469 96 425 53 q 512 205 512 138 q 494 279 512 247 q 440 338 476 312 q 311 408 405 365 q 119 539 168 476 q 70 686 70 602 q 162 893 70 811 q 428 975 254 975 q 678 931 543 975 q 674 783 674 825 q 678 680 674 735 z "},"T":{"ha":940,"x_min":34,"x_max":911,"o":"m 911 669 l 848 669 q 791 831 802 812 q 762 858 781 850 q 641 866 743 866 l 575 866 l 575 233 q 583 90 575 115 q 603 70 587 77 q 726 43 619 62 l 726 -7 q 460 0 519 0 q 216 -7 380 0 l 216 43 q 345 73 324 62 q 363 97 358 80 q 368 239 368 115 l 368 866 l 254 866 q 178 857 197 866 q 147 822 159 847 q 96 669 129 784 l 34 669 q 48 807 45 769 q 54 955 51 845 q 579 949 323 947 q 891 955 796 951 q 911 669 892 824 z "},"U":{"ha":1100,"x_min":7,"x_max":1097,"o":"m 7 905 l 7 955 q 262 947 166 947 q 513 955 357 947 l 513 905 q 389 877 414 888 q 367 857 372 870 q 360 768 360 840 l 360 420 q 375 238 360 286 q 448 136 394 174 q 602 97 503 97 q 766 141 711 97 q 838 258 822 186 q 854 507 854 331 q 848 736 854 548 q 838 859 845 841 q 824 876 834 870 q 736 899 811 885 q 709 905 727 901 l 709 955 q 912 947 852 947 q 1097 955 983 947 l 1097 905 q 977 874 994 886 q 958 840 961 863 q 949 495 951 802 q 941 264 948 319 q 904 141 929 189 q 829 54 878 94 q 720 -4 780 14 q 552 -28 642 -28 q 312 16 401 -28 q 188 131 223 60 q 153 338 153 201 l 153 757 q 145 859 153 838 q 124 879 139 872 q 7 905 109 886 z "},"V":{"ha":999,"x_min":5,"x_max":993,"o":"m 5 905 l 5 955 q 253 947 195 947 q 482 955 330 947 l 482 905 q 386 875 398 884 q 374 850 374 865 q 385 809 374 836 l 570 290 l 696 637 l 764 833 q 766 851 766 843 q 749 876 766 867 q 657 905 745 878 l 657 955 q 829 947 767 947 q 993 955 885 947 l 993 905 q 903 873 925 889 q 880 845 890 864 q 749 522 869 825 q 538 -28 664 308 l 477 -28 l 268 518 q 132 844 149 817 q 110 869 123 860 q 5 905 91 883 z "},"W":{"ha":1475,"x_min":7,"x_max":1468,"o":"m 7 905 l 7 955 q 216 947 120 947 q 474 955 281 947 l 474 905 q 389 873 410 891 q 376 848 376 863 q 378 829 376 840 q 433 661 380 822 l 553 303 q 706 699 585 380 q 651 836 665 810 q 619 872 636 861 q 528 905 602 882 l 528 955 q 765 947 693 947 q 996 955 836 947 l 996 905 l 979 901 q 899 875 911 885 q 887 850 887 865 q 889 833 887 843 l 968 586 q 1061 311 1015 442 q 1234 852 1234 810 q 1221 876 1234 865 q 1126 905 1208 886 l 1126 955 q 1289 947 1229 947 q 1468 955 1331 947 l 1468 905 q 1369 871 1392 890 q 1324 791 1345 852 q 1266 633 1310 748 q 1030 -28 1177 401 l 967 -28 q 751 576 901 186 q 522 -28 613 227 l 458 -28 l 284 465 q 144 829 169 779 q 115 867 131 855 q 7 905 94 884 z "},"X":{"ha":1071,"x_min":20,"x_max":1050,"o":"m 39 905 l 39 955 q 296 947 203 947 q 541 955 395 947 l 541 905 q 444 880 458 890 q 432 859 432 871 q 439 829 432 844 q 583 601 458 794 q 775 868 775 840 q 767 882 775 876 q 665 905 758 887 l 665 955 q 852 947 804 947 q 1034 955 886 947 l 1034 905 q 941 880 968 894 q 890 844 913 866 q 745 671 882 834 q 630 528 665 575 q 861 170 725 375 q 933 84 906 102 q 1050 43 960 66 l 1050 -7 q 797 0 914 0 q 564 -7 681 0 l 564 43 q 654 70 638 58 q 665 88 665 78 q 657 112 665 98 q 498 366 650 125 q 309 123 418 273 q 288 85 288 96 q 298 67 288 74 q 404 43 313 58 l 404 -7 q 208 0 286 0 q 20 -7 126 0 l 20 43 q 116 63 96 54 q 181 114 146 77 q 452 439 241 175 q 212 812 255 753 q 156 865 184 848 q 39 905 128 882 z "},"Y":{"ha":1042,"x_min":1,"x_max":1044,"o":"m 1 905 l 1 955 l 134 950 q 243 947 225 947 q 486 955 309 947 l 486 905 q 397 878 409 887 q 385 859 385 869 q 395 831 385 848 q 475 691 420 791 q 586 500 531 591 l 777 848 q 783 867 783 861 q 773 883 783 876 q 683 905 764 890 l 683 955 l 716 953 q 867 947 829 947 q 1044 955 909 947 l 1044 905 q 929 870 956 888 q 871 808 901 853 q 627 409 851 779 l 627 165 q 634 92 628 106 q 659 68 641 77 q 757 47 671 63 l 779 43 l 779 -7 q 527 0 595 0 q 267 -7 478 0 l 267 43 q 299 48 288 47 q 393 71 372 59 q 413 95 406 78 q 419 195 419 113 l 419 395 q 286 608 374 465 q 147 825 171 793 q 96 874 123 858 q 1 905 70 890 z "},"Z":{"ha":897,"x_min":28,"x_max":867,"o":"m 141 685 l 85 685 q 105 955 98 808 q 468 947 307 947 q 848 955 624 947 l 848 898 q 613 562 781 805 q 290 80 348 178 l 589 80 q 696 90 671 80 q 745 132 722 100 q 806 268 779 180 l 867 268 l 836 115 q 817 -7 829 79 l 419 0 q 28 -7 316 0 l 28 47 l 410 602 l 583 863 l 307 863 q 230 856 251 863 q 199 833 209 849 q 156 732 174 797 q 141 685 151 716 z "},"[":{"ha":507,"x_min":131,"x_max":444,"o":"m 444 979 l 444 905 l 315 905 l 315 -208 l 444 -208 l 444 -281 q 283 -277 333 -277 q 131 -281 222 -277 q 136 338 136 -81 q 131 979 136 838 q 292 975 234 975 q 444 979 321 975 z "},"\\":{"ha":782,"x_min":75,"x_max":707,"o":"m 75 967 l 209 967 l 707 -25 l 572 -25 l 75 967 z "},"]":{"ha":507,"x_min":62,"x_max":375,"o":"m 62 -281 l 62 -208 l 191 -208 l 191 905 l 62 905 l 62 979 q 224 975 173 975 q 375 979 283 975 q 371 359 371 779 q 375 -281 371 -140 q 214 -277 273 -277 q 62 -281 185 -277 z "},"^":{"ha":810,"x_min":102,"x_max":710,"o":"m 102 452 l 380 939 l 436 939 l 710 452 l 602 452 l 402 799 l 205 452 l 102 452 z "},"_":{"ha":694,"x_min":-8,"x_max":703,"o":"m -8 -104 l 703 -104 l 703 -174 l -8 -174 l -8 -104 z "},"`":{"ha":463,"x_min":61,"x_max":323,"o":"m 323 730 l 264 730 q 61 951 151 861 l 72 968 q 153 965 121 965 q 245 968 178 965 q 274 876 263 907 l 323 730 z "},"a":{"ha":694,"x_min":54,"x_max":707,"o":"m 151 421 l 90 427 q 115 598 110 524 q 373 658 239 658 q 497 633 451 658 q 562 564 544 608 q 579 429 579 521 l 576 199 q 588 116 576 133 q 617 98 599 98 q 682 122 639 98 l 707 83 q 571 -3 615 18 q 510 -17 539 -17 q 444 4 471 -17 q 406 66 416 25 q 292 -4 324 10 q 213 -18 259 -18 q 99 30 143 -18 q 54 155 54 77 q 84 258 54 211 q 159 322 104 292 l 406 439 q 380 547 404 519 q 309 575 356 575 q 225 544 260 575 q 151 421 189 512 m 406 366 q 264 280 294 313 q 235 193 235 247 q 257 113 235 138 q 313 87 279 87 q 365 104 340 87 q 398 154 389 122 q 406 290 406 186 q 406 366 406 313 z "},"b":{"ha":724,"x_min":-21,"x_max":673,"o":"m -21 846 l -21 893 q 247 989 113 922 l 280 968 q 262 601 262 842 q 262 535 262 578 q 385 638 347 617 q 468 660 424 660 q 614 589 554 660 q 673 380 673 519 q 559 89 673 201 q 267 -24 446 -24 q 79 16 179 -24 q 85 487 85 206 q 81 817 85 800 q 37 850 75 850 q -21 846 20 850 m 262 91 q 351 65 311 65 q 443 107 411 65 q 488 293 488 167 q 444 487 488 422 q 368 528 415 528 q 293 489 323 528 q 262 359 262 450 l 262 91 z "},"c":{"ha":623,"x_min":47,"x_max":604,"o":"m 565 418 l 504 422 q 464 555 497 518 q 381 593 431 593 q 281 545 319 593 q 232 361 232 481 q 286 175 232 239 q 416 111 340 111 q 483 122 449 111 q 572 163 516 132 l 604 111 q 438 0 491 23 q 326 -24 386 -24 q 126 61 205 -24 q 47 290 47 145 q 140 554 47 444 q 398 665 233 665 q 604 614 494 665 q 578 486 591 559 q 565 418 570 442 z "},"d":{"ha":753,"x_min":46,"x_max":751,"o":"m 362 844 l 362 894 q 632 989 517 927 l 665 966 q 650 768 655 880 q 646 518 646 656 q 647 170 646 272 q 659 111 648 123 q 701 99 671 99 q 751 100 707 99 l 751 52 q 608 25 667 40 q 480 -17 549 9 l 447 -1 q 458 87 454 42 q 330 -1 381 23 q 253 -18 294 -18 q 118 51 173 -18 q 46 279 46 138 q 65 415 46 347 q 127 535 85 483 q 240 622 170 587 q 383 657 310 657 q 420 654 399 657 q 465 644 440 650 q 467 749 467 718 q 456 836 467 821 q 417 851 445 851 q 362 844 397 851 m 466 348 q 446 526 466 486 q 363 578 420 578 q 277 525 315 578 q 238 345 238 473 q 283 157 238 220 q 363 113 315 113 q 448 172 421 113 q 466 348 466 215 z "},"e":{"ha":652,"x_min":45,"x_max":617,"o":"m 582 176 l 617 125 q 421 -6 511 35 q 322 -24 382 -24 q 130 51 196 -24 q 45 300 45 144 q 142 564 45 463 q 380 665 238 665 q 571 586 511 665 q 617 425 611 534 q 554 374 583 403 q 409 377 483 377 q 230 374 313 377 q 229 349 229 359 q 273 181 229 254 q 404 109 317 109 q 486 123 447 109 q 582 176 525 137 m 231 444 q 294 443 269 443 q 436 448 352 443 q 407 563 432 534 q 339 591 382 591 q 267 557 297 591 q 231 444 237 524 z "},"f":{"ha":478,"x_min":23,"x_max":608,"o":"m 568 769 l 509 774 q 468 890 492 863 q 407 917 443 917 q 334 877 361 917 q 307 694 307 837 q 307 635 307 685 l 374 633 q 485 642 425 633 l 495 625 q 452 546 472 588 q 307 557 380 555 l 309 172 l 309 134 q 324 73 309 89 q 404 45 340 56 q 429 40 412 43 l 429 -7 q 206 0 271 0 q 23 -7 125 0 l 23 40 q 109 73 98 60 q 124 154 121 86 q 128 557 127 222 q 28 551 77 557 l 28 599 q 128 647 79 618 q 134 774 128 749 q 176 865 144 823 q 289 954 218 919 q 437 989 359 989 q 608 958 517 989 q 588 880 593 905 l 568 769 z "},"g":{"ha":708,"x_min":20,"x_max":704,"o":"m 697 642 l 704 629 q 665 551 682 592 q 576 560 621 559 q 610 441 610 499 q 578 323 610 376 q 480 237 546 269 q 343 205 415 205 q 306 208 328 205 q 256 213 284 210 q 214 152 214 174 q 229 132 214 140 q 350 119 254 119 l 462 120 q 643 84 599 120 q 687 -25 687 48 q 644 -158 687 -98 q 505 -255 600 -218 q 281 -292 410 -292 q 70 -241 141 -292 q 20 -155 20 -206 q 29 -121 20 -135 q 65 -91 38 -108 q 164 -22 122 -56 q 91 24 113 -4 q 70 88 70 52 q 76 121 70 110 q 100 147 81 132 q 201 231 170 202 q 118 295 144 258 q 81 420 81 347 q 153 591 81 525 q 355 658 224 658 q 420 652 387 658 q 486 633 453 646 q 566 632 562 632 q 697 642 633 632 m 260 450 q 296 294 260 347 q 355 263 317 263 q 409 295 386 263 q 431 416 431 328 q 399 569 431 521 q 340 600 378 600 q 284 567 307 600 q 260 450 260 535 m 233 -33 q 170 -128 170 -83 q 207 -188 170 -159 q 321 -216 245 -216 q 482 -180 424 -216 q 540 -96 540 -143 q 519 -54 540 -68 q 410 -36 493 -36 l 326 -37 q 233 -33 304 -37 z "},"h":{"ha":781,"x_min":11,"x_max":779,"o":"m 11 848 l 11 897 q 169 940 119 922 q 278 989 220 958 l 312 968 q 300 800 304 904 q 294 570 294 651 l 294 529 q 416 636 379 616 q 509 656 454 656 q 623 622 583 656 q 671 532 663 587 q 676 303 676 494 q 679 110 676 148 q 692 71 681 83 q 752 47 703 60 q 779 40 761 45 l 779 -7 q 595 0 663 0 q 416 -7 524 0 l 416 40 q 487 69 476 56 q 498 126 498 82 q 498 427 498 415 q 471 504 494 481 q 410 527 449 527 q 341 502 372 527 q 300 435 310 477 q 293 268 293 406 q 296 95 293 116 q 312 62 298 74 q 374 40 326 50 l 374 -7 q 207 0 269 0 q 11 -7 165 0 l 11 40 q 28 45 22 43 q 93 68 83 58 q 109 130 106 84 q 115 504 115 227 l 113 800 q 102 841 113 828 q 71 853 91 853 q 11 848 45 853 z "},"i":{"ha":435,"x_min":24,"x_max":414,"o":"m 224 980 q 302 948 270 980 q 334 870 334 916 q 302 792 334 825 q 224 760 270 760 q 147 792 179 760 q 115 870 115 825 q 146 948 115 916 q 224 980 178 980 m 28 524 l 28 573 q 294 667 182 600 l 328 649 q 316 503 319 567 q 311 200 311 407 q 317 90 311 113 q 333 66 321 74 q 414 40 345 58 l 414 -7 q 242 0 320 0 q 24 -7 168 0 l 24 40 l 42 44 q 113 67 102 58 q 126 102 123 77 q 132 368 132 167 q 126 504 132 485 q 87 529 118 529 q 28 524 61 529 z "},"j":{"ha":406,"x_min":-107,"x_max":326,"o":"m 214 979 q 293 947 260 979 q 326 869 326 915 q 293 790 326 823 q 214 758 260 758 q 136 790 168 758 q 103 869 103 823 q 136 947 103 915 q 214 979 168 979 m 15 526 l 15 571 q 165 614 108 593 q 285 667 223 635 l 317 648 q 306 528 308 573 q 300 218 301 424 q 293 -12 300 49 q 248 -167 283 -111 q 146 -257 212 -223 q 5 -292 79 -292 q -107 -266 -50 -292 q -85 -81 -90 -197 l -26 -81 q -2 -190 -22 -163 q 45 -216 18 -216 q 90 -193 72 -216 q 117 -71 112 -162 q 121 228 121 -6 q 117 500 121 483 q 73 532 111 532 q 15 526 60 532 z "},"k":{"ha":753,"x_min":12,"x_max":770,"o":"m 12 849 l 12 893 q 281 989 171 931 l 314 967 q 300 791 304 882 q 296 351 297 701 q 412 473 329 384 q 473 543 468 534 q 477 560 477 552 q 467 579 477 572 q 414 593 454 589 l 414 642 q 582 634 538 634 q 744 642 625 634 l 744 593 q 626 555 665 579 q 448 401 570 522 q 613 170 462 380 q 697 71 669 92 q 770 40 718 56 l 770 -7 q 590 0 644 0 q 414 -7 536 0 l 414 40 q 450 53 444 47 q 456 68 456 59 q 450 87 456 76 q 347 254 442 102 l 296 336 l 296 188 q 300 86 296 98 q 315 60 304 68 q 376 40 326 52 l 376 -7 q 196 0 267 0 q 12 -7 127 0 l 12 40 q 98 73 83 55 q 113 165 110 86 q 117 630 117 244 q 113 826 117 811 q 68 852 106 852 q 12 849 50 852 z "},"l":{"ha":419,"x_min":9,"x_max":396,"o":"m 14 848 l 14 895 q 166 938 113 919 q 281 989 220 957 l 315 966 q 300 761 305 879 q 295 493 295 643 q 297 128 295 170 q 309 74 298 85 q 396 40 326 56 l 396 -7 q 203 0 290 0 q 9 -7 115 0 l 9 40 q 98 71 84 57 q 114 135 111 85 q 118 517 118 207 q 114 822 118 802 q 67 853 108 853 q 14 848 49 853 z "},"m":{"ha":1157,"x_min":16,"x_max":1156,"o":"m 16 520 l 16 566 q 285 660 169 597 l 317 643 q 304 527 308 593 q 419 636 382 615 q 508 658 456 658 q 623 621 578 658 q 673 527 655 595 q 786 630 739 603 q 888 658 834 658 q 990 629 948 658 q 1043 554 1031 601 q 1055 381 1055 508 l 1054 274 q 1060 89 1054 120 q 1074 66 1063 75 q 1156 40 1086 58 l 1156 -7 q 976 0 1045 0 q 795 -7 907 0 l 795 40 q 864 66 854 56 q 876 101 873 76 q 879 326 879 134 q 874 454 879 427 q 847 511 867 494 q 796 529 827 529 q 723 500 755 529 q 682 420 690 472 q 677 225 677 392 q 680 92 677 109 q 694 64 682 74 q 758 40 706 54 l 758 -7 q 596 0 670 0 q 418 -7 526 0 l 418 40 q 483 64 471 54 q 496 93 494 74 q 500 288 500 119 q 498 441 500 420 q 473 508 492 488 q 416 529 453 529 q 344 502 374 529 q 306 434 314 474 q 298 308 298 394 q 299 97 298 112 q 315 64 301 76 q 378 40 328 52 l 378 -7 q 198 0 264 0 q 16 -7 132 0 l 16 40 q 108 77 98 59 q 121 342 121 101 q 116 498 121 483 q 68 526 106 526 q 16 520 46 526 z "},"n":{"ha":781,"x_min":16,"x_max":779,"o":"m 16 519 l 16 568 q 165 608 106 587 q 283 661 224 629 l 318 641 q 305 528 309 589 q 418 636 380 614 q 508 658 456 658 q 596 638 559 658 q 651 588 633 618 q 674 507 669 558 q 677 354 677 475 l 677 233 q 680 96 677 117 q 693 66 682 75 q 753 46 703 57 q 779 40 761 44 l 779 -7 q 603 0 665 0 q 417 -7 540 0 l 417 40 q 481 63 469 53 q 495 98 492 74 q 499 323 499 132 q 488 486 499 458 q 416 530 469 530 q 347 503 378 530 q 307 433 315 475 q 298 248 298 391 q 303 89 298 120 q 315 64 306 72 q 379 40 325 56 l 379 -7 q 207 0 276 0 q 16 -7 142 0 l 16 40 q 101 68 91 60 q 114 109 111 77 q 120 299 120 182 q 116 495 120 477 q 75 525 108 525 q 16 519 54 525 z "},"o":{"ha":766,"x_min":50,"x_max":717,"o":"m 50 329 q 143 572 50 479 q 391 665 236 665 q 630 579 544 665 q 717 342 717 493 q 625 73 717 169 q 377 -24 533 -24 q 135 66 220 -24 q 50 329 50 155 m 252 365 q 306 90 252 174 q 393 42 336 42 q 474 83 446 42 q 515 288 515 142 q 464 551 515 473 q 376 600 433 600 q 294 557 323 600 q 252 365 252 500 z "},"p":{"ha":753,"x_min":-1,"x_max":708,"o":"m 5 517 l 5 564 q 162 608 116 591 q 273 660 209 625 l 307 643 q 296 535 298 591 q 402 634 378 621 q 496 658 446 658 q 646 583 584 658 q 708 368 708 508 q 609 91 708 199 q 385 -17 510 -17 q 335 -11 359 -17 q 288 7 311 -5 q 288 -44 288 -26 q 297 -209 288 -193 q 386 -245 307 -224 q 409 -251 393 -247 l 409 -298 q 200 -291 274 -291 q -1 -298 124 -291 l -1 -251 q 90 -218 74 -232 q 107 -179 105 -203 q 112 162 112 -124 q 107 488 112 465 q 62 523 100 523 q 5 517 43 523 m 288 97 q 341 65 315 76 q 389 54 366 54 q 474 94 446 54 q 519 291 519 159 q 475 481 519 419 q 397 526 444 526 q 327 494 357 526 q 290 391 296 463 q 288 97 288 364 z "},"q":{"ha":724,"x_min":45,"x_max":755,"o":"m 625 665 l 667 642 q 647 529 651 576 q 641 256 641 451 q 644 -155 641 -110 q 663 -217 647 -201 q 755 -251 679 -233 l 755 -298 q 543 -291 614 -291 q 343 -298 460 -291 l 343 -251 q 450 -214 435 -230 q 465 -144 465 -199 l 465 -132 l 465 89 q 336 -1 391 25 q 264 -17 302 -17 q 108 58 171 -17 q 45 280 45 133 q 174 579 45 475 q 394 658 271 658 q 478 645 439 658 q 561 602 516 632 q 625 665 595 629 m 463 363 q 456 493 463 463 q 423 556 446 536 q 361 576 401 576 q 281 534 311 576 q 235 350 235 471 q 279 155 235 217 q 362 109 313 109 q 422 134 397 109 q 456 207 448 159 q 463 363 459 228 z "},"r":{"ha":534,"x_min":15,"x_max":549,"o":"m 15 519 l 15 567 q 283 659 183 604 l 316 641 q 302 484 304 570 q 405 618 372 593 q 482 643 437 643 q 549 627 513 643 q 517 451 528 542 l 471 451 q 453 491 467 478 q 419 504 439 504 q 363 476 389 504 q 307 371 323 433 q 299 261 299 339 q 302 102 299 123 q 317 71 304 81 q 392 47 329 61 q 418 40 401 45 l 418 -7 q 210 0 290 0 q 15 -7 125 0 l 15 40 q 107 78 96 57 q 123 357 123 107 q 113 507 123 489 q 76 525 102 525 q 15 519 56 525 z "},"s":{"ha":564,"x_min":50,"x_max":521,"o":"m 59 217 l 120 217 q 179 84 138 123 q 274 44 220 44 q 339 66 315 44 q 363 120 363 88 q 340 176 363 149 q 219 260 316 203 q 89 362 121 316 q 56 465 56 408 q 123 607 56 549 q 315 665 190 665 q 500 624 406 665 q 481 454 492 587 l 422 456 q 373 570 408 536 q 294 603 339 603 q 236 584 256 603 q 215 534 215 564 q 233 486 215 507 q 345 407 258 456 q 488 300 454 345 q 521 195 521 256 q 458 45 521 113 q 243 -24 396 -24 q 50 7 155 -24 q 59 217 58 127 z "},"t":{"ha":478,"x_min":14,"x_max":479,"o":"m 470 635 l 479 625 q 440 547 457 587 q 283 557 368 554 l 281 477 l 279 384 l 277 292 q 299 129 277 162 q 355 96 320 96 q 440 122 381 96 l 465 73 q 328 -1 362 12 q 241 -17 283 -17 q 141 23 178 -17 q 103 141 103 63 l 106 298 l 111 557 l 56 559 q 14 557 49 559 l 14 608 q 134 683 79 631 q 244 838 189 735 l 304 838 q 283 635 286 725 q 355 633 342 633 q 470 635 380 633 z "},"u":{"ha":766,"x_min":-7,"x_max":760,"o":"m 760 98 l 760 47 q 605 19 663 35 q 490 -20 547 4 l 458 0 q 470 98 466 47 q 350 1 384 18 q 271 -17 316 -17 q 183 2 220 -17 q 127 49 146 20 q 104 125 109 78 q 101 279 101 155 l 102 414 q 87 544 102 526 q -7 569 72 562 l -7 614 q 260 659 148 626 l 291 640 q 282 539 286 606 q 277 328 277 419 q 295 147 277 188 q 366 106 314 106 q 435 132 406 106 q 473 211 464 158 q 479 425 479 244 q 466 545 479 530 q 372 569 454 560 l 372 614 q 541 635 490 626 q 640 659 591 644 l 672 640 q 659 525 662 579 q 654 253 654 435 q 661 118 654 134 q 703 96 669 96 l 711 96 q 760 98 728 97 z "},"v":{"ha":737,"x_min":23,"x_max":715,"o":"m 23 594 l 23 642 q 212 634 133 634 q 397 642 292 634 l 397 594 q 333 574 341 581 q 322 551 322 565 q 328 523 322 540 l 428 243 l 527 524 q 532 550 532 539 q 523 571 532 562 q 475 594 514 580 l 475 642 q 600 634 553 634 q 715 642 648 634 l 715 594 q 632 546 652 574 q 517 264 613 519 q 403 -24 465 127 l 347 -24 l 203 329 l 119 530 q 93 562 106 552 q 23 594 81 572 z "},"w":{"ha":1143,"x_min":28,"x_max":1115,"o":"m 28 594 l 28 642 q 215 634 139 634 q 393 642 294 634 l 393 594 q 337 573 347 582 q 327 552 327 564 q 342 497 327 538 l 440 227 l 545 465 q 497 566 512 550 q 433 594 482 581 l 433 642 l 473 640 q 618 634 577 634 q 797 642 632 634 l 797 594 q 732 573 747 585 q 721 551 721 564 q 734 504 721 539 l 828 246 l 915 494 q 930 550 930 536 q 924 568 930 560 q 892 587 915 578 q 875 594 886 589 l 875 642 q 998 634 963 634 q 1115 642 1031 634 l 1115 594 q 1045 562 1059 574 q 1010 494 1031 549 l 804 -24 l 746 -24 q 586 366 690 119 l 412 -24 l 353 -24 l 155 458 q 110 549 123 535 q 28 594 96 564 z "},"x":{"ha":737,"x_min":7,"x_max":728,"o":"m 40 594 l 40 642 q 220 634 159 634 q 401 642 278 634 l 401 594 q 350 578 363 589 q 341 563 341 572 q 408 436 341 547 q 503 566 503 538 q 497 579 503 574 q 457 594 492 584 l 457 642 q 581 634 518 634 q 704 642 644 634 l 704 594 q 643 578 663 587 q 615 562 629 573 q 573 517 600 550 l 462 380 l 606 139 q 668 66 638 90 q 728 40 688 51 l 728 -7 q 557 0 635 0 q 359 -7 473 0 l 359 40 q 416 60 400 47 q 424 77 424 66 q 419 100 424 88 q 357 209 404 132 q 333 250 349 222 q 201 76 201 95 q 211 60 201 67 q 273 40 227 48 l 273 -7 q 138 0 176 0 q 7 -7 97 0 l 7 40 q 58 52 41 42 q 117 106 82 65 q 282 303 124 113 q 124 553 153 524 q 40 594 96 583 z "},"y":{"ha":694,"x_min":1,"x_max":692,"o":"m 1 594 l 1 642 q 191 634 124 634 q 376 642 261 634 l 376 594 q 359 591 365 592 q 309 577 318 585 q 299 557 299 569 q 313 512 299 547 l 415 258 l 496 497 q 509 555 509 536 q 500 575 509 566 q 454 594 491 583 l 454 642 q 581 634 531 634 q 692 642 634 634 l 692 594 q 626 566 641 578 q 594 516 611 553 q 491 243 578 479 q 349 -123 382 -56 q 250 -255 303 -218 q 140 -292 196 -292 q 79 -284 118 -292 q 55 -206 64 -231 q 22 -134 45 -181 l 60 -110 q 119 -153 95 -142 q 168 -163 142 -163 q 249 -131 212 -163 q 327 20 285 -98 l 134 457 q 79 556 98 540 q 1 594 61 573 z "},"z":{"ha":665,"x_min":39,"x_max":618,"o":"m 139 428 l 81 428 q 94 642 91 503 q 357 634 235 634 q 618 642 484 634 l 618 587 q 385 243 600 561 l 273 76 l 312 76 q 473 83 447 76 q 512 109 499 90 q 543 219 526 129 l 605 219 q 596 -7 597 133 q 321 0 441 0 q 39 -7 201 0 l 39 45 q 387 555 146 194 q 351 554 363 554 q 213 548 237 554 q 176 527 188 543 q 139 428 157 503 z "},"{":{"ha":550,"x_min":112,"x_max":488,"o":"m 488 941 l 488 910 q 388 862 420 897 q 356 782 356 827 q 372 670 356 738 q 389 554 389 602 q 361 457 389 505 q 281 376 333 409 q 168 332 245 353 q 288 280 250 305 q 365 199 339 245 q 390 106 390 152 q 373 1 390 69 q 357 -115 357 -68 q 387 -200 357 -165 q 488 -249 418 -235 l 488 -281 q 397 -273 426 -281 q 304 -231 348 -261 q 234 -156 260 -201 q 208 -62 208 -111 q 229 62 208 -19 q 245 168 245 123 q 212 261 245 224 q 112 310 178 299 l 112 351 q 211 401 178 362 q 245 499 245 441 q 230 601 245 543 q 209 722 209 682 q 235 812 209 767 q 301 886 261 858 q 389 928 341 915 q 488 941 425 939 z "},"|":{"ha":782,"x_min":328,"x_max":454,"o":"m 328 967 l 454 967 l 454 -188 l 328 -188 l 328 967 z "},"}":{"ha":550,"x_min":62,"x_max":438,"o":"m 62 -281 l 62 -250 q 161 -202 129 -237 q 194 -122 194 -167 q 178 -9 194 -77 q 161 106 161 58 q 189 203 161 155 q 269 285 217 252 q 382 329 304 308 q 262 380 299 355 q 185 462 211 415 q 159 554 159 509 q 176 660 159 591 q 193 775 193 728 q 162 861 193 826 q 62 909 132 895 l 62 941 q 152 934 124 941 q 246 891 202 922 q 316 816 290 861 q 342 723 342 771 q 321 598 342 680 q 305 493 305 538 q 338 399 305 437 q 438 351 372 361 l 438 309 q 339 259 372 298 q 305 161 305 220 q 320 60 305 117 q 340 -61 340 -21 q 315 -152 340 -107 q 249 -226 289 -197 q 161 -268 209 -255 q 62 -281 125 -278 z "},"~":{"ha":926,"x_min":90,"x_max":836,"o":"m 793 572 l 836 572 q 777 398 831 456 q 645 340 724 340 q 566 352 608 340 q 390 420 524 363 q 250 460 294 460 q 174 432 204 460 q 134 340 144 404 l 90 340 q 148 517 96 460 q 274 573 199 573 q 349 563 313 573 q 534 493 417 545 q 632 456 600 465 q 675 450 652 450 q 754 481 722 450 q 793 572 786 513 z "},"Ä":{"ha":1084,"x_min":2,"x_max":1082,"o":"m 605 -7 l 605 43 q 700 67 687 58 q 713 93 713 77 q 709 115 713 102 q 638 286 698 143 q 479 288 543 288 q 304 286 427 288 q 229 91 229 108 q 240 67 229 75 q 336 43 251 59 l 336 -7 q 173 0 251 0 q 2 -7 89 0 l 2 43 q 86 72 63 56 q 115 104 102 83 q 273 435 141 147 q 511 975 356 618 l 566 975 q 827 380 629 816 q 958 105 937 138 q 988 73 973 82 q 1082 43 1003 63 l 1082 -7 q 859 0 962 0 q 605 -7 758 0 m 475 683 l 336 363 l 471 363 q 609 363 519 363 l 475 683 m 665 1225 q 727 1200 701 1225 q 753 1137 753 1174 q 727 1075 753 1101 q 665 1048 701 1048 q 602 1075 627 1048 q 576 1137 576 1101 q 602 1200 576 1174 q 665 1225 627 1225 m 420 1225 q 484 1199 458 1225 q 509 1137 509 1173 q 483 1074 509 1100 q 420 1048 457 1048 q 358 1074 384 1048 q 332 1137 332 1100 q 358 1199 332 1173 q 420 1225 384 1225 z "},"Å":{"ha":1084,"x_min":2,"x_max":1082,"o":"m 605 -7 l 605 43 q 700 67 687 58 q 713 93 713 77 q 709 115 713 102 q 638 286 698 143 q 479 288 543 288 q 304 286 427 288 q 229 91 229 108 q 240 67 229 75 q 336 43 251 59 l 336 -7 q 173 0 251 0 q 2 -7 89 0 l 2 43 q 86 72 63 56 q 115 104 102 83 q 273 435 141 147 q 511 975 356 618 l 566 975 q 827 380 629 816 q 958 105 937 138 q 988 73 973 82 q 1082 43 1003 63 l 1082 -7 q 859 0 962 0 q 605 -7 758 0 m 475 683 l 336 363 l 471 363 q 609 363 519 363 l 475 683 m 541 1208 q 644 1165 601 1208 q 686 1061 686 1122 q 644 958 686 1001 q 541 916 601 916 q 437 958 479 916 q 394 1061 394 1001 q 437 1165 394 1122 q 541 1208 479 1208 m 541 1131 q 491 1111 511 1131 q 471 1061 471 1090 q 491 1011 471 1032 q 541 991 511 991 q 590 1011 570 991 q 610 1061 610 1032 q 590 1111 610 1090 q 541 1131 570 1131 z "},"Ç":{"ha":1055,"x_min":62,"x_max":978,"o":"m 943 179 l 978 114 q 761 4 861 37 q 553 -28 662 -28 q 193 103 324 -28 q 62 454 62 233 q 210 832 62 689 q 618 975 357 975 q 780 962 702 975 q 972 913 857 949 q 968 821 968 869 q 978 621 968 739 l 903 621 q 859 773 869 751 q 776 859 833 824 q 621 895 719 895 q 392 804 473 895 q 294 502 294 694 q 392 198 294 302 q 654 94 489 94 q 943 179 800 94 m 515 7 l 570 7 q 524 -63 550 -28 q 573 -84 553 -63 q 592 -137 592 -104 q 550 -221 592 -189 q 382 -263 494 -263 q 338 -262 367 -263 l 338 -212 q 450 -192 419 -212 q 471 -156 471 -178 q 465 -137 471 -144 q 447 -130 458 -130 q 424 -132 439 -130 l 414 -102 q 458 -63 443 -80 q 515 7 474 -47 z "},"É":{"ha":926,"x_min":11,"x_max":899,"o":"m 11 905 l 11 955 q 366 947 174 947 q 825 955 589 947 q 842 707 827 812 l 784 707 q 772 741 776 729 q 720 853 739 838 q 635 869 701 869 l 376 869 q 369 536 370 754 l 487 534 q 601 552 579 534 q 646 673 622 570 l 702 673 q 694 498 694 574 q 702 317 694 425 l 646 317 q 609 443 627 427 q 503 459 591 459 l 370 459 l 370 80 l 640 80 q 699 85 684 80 q 743 117 723 94 q 840 260 784 162 l 899 260 q 814 -7 860 149 q 331 0 583 0 q 11 -7 216 0 l 11 43 q 140 75 123 63 q 162 154 162 91 l 162 177 l 163 446 l 163 663 l 163 763 q 155 853 163 836 q 126 881 148 871 q 11 905 105 891 m 629 1256 l 638 1238 q 433 1021 536 1139 l 374 1021 l 454 1256 q 545 1253 522 1253 q 629 1256 570 1253 z "},"Ñ":{"ha":1114,"x_min":4,"x_max":1105,"o":"m 4 905 l 4 955 q 177 947 97 947 q 367 955 258 947 q 865 340 450 844 l 862 709 q 851 859 859 844 q 828 883 844 874 q 713 905 812 891 l 713 955 q 904 947 823 947 q 1105 955 983 947 l 1105 905 q 1074 899 1084 901 q 978 872 994 887 q 960 812 962 858 q 953 422 953 718 q 960 -12 953 232 q 897 -35 928 -22 l 640 290 l 248 766 l 250 444 l 256 131 q 262 86 258 96 q 276 72 267 77 q 372 48 291 63 q 401 43 382 47 l 401 -7 q 214 0 284 0 q 9 -7 153 0 l 9 43 q 41 49 30 47 q 134 73 119 61 q 147 94 143 80 q 156 296 151 108 q 163 762 163 568 q 156 846 163 827 q 131 874 149 864 q 38 898 113 884 q 4 905 26 900 m 734 1224 l 794 1224 q 730 1079 771 1122 q 659 1047 699 1047 q 544 1079 625 1047 q 440 1112 462 1112 q 410 1099 425 1112 q 380 1047 395 1086 l 320 1047 q 385 1191 342 1145 q 453 1224 416 1224 q 494 1219 473 1224 q 584 1186 516 1213 q 678 1158 652 1158 q 707 1169 694 1158 q 734 1224 719 1180 z "},"Ö":{"ha":1129,"x_min":59,"x_max":1069,"o":"m 59 458 q 202 833 59 691 q 585 975 345 975 q 940 847 811 975 q 1069 505 1069 720 q 1019 257 1069 369 q 915 107 979 168 q 785 16 852 46 q 547 -28 686 -28 q 187 100 315 -28 q 59 458 59 229 m 294 495 q 383 132 294 248 q 574 45 450 45 q 718 90 659 45 q 806 231 777 134 q 835 457 835 328 q 817 646 835 555 q 769 787 800 736 q 687 869 739 838 q 564 900 636 900 q 420 855 483 900 q 325 713 357 810 q 294 495 294 616 m 686 1225 q 749 1200 723 1225 q 774 1137 774 1174 q 749 1075 774 1101 q 686 1048 723 1048 q 623 1075 649 1048 q 597 1137 597 1101 q 623 1200 597 1174 q 686 1225 649 1225 m 442 1225 q 505 1199 479 1225 q 531 1137 531 1173 q 505 1074 531 1100 q 442 1048 479 1048 q 380 1074 406 1048 q 354 1137 354 1100 q 380 1199 354 1173 q 442 1225 406 1225 z "},"Ü":{"ha":1100,"x_min":7,"x_max":1097,"o":"m 7 905 l 7 955 q 262 947 166 947 q 513 955 357 947 l 513 905 q 389 877 414 888 q 367 857 372 870 q 360 768 360 840 l 360 420 q 375 238 360 286 q 448 136 394 174 q 602 97 503 97 q 766 141 711 97 q 838 258 822 186 q 854 507 854 331 q 848 736 854 548 q 838 859 845 841 q 824 876 834 870 q 736 899 811 885 q 709 905 727 901 l 709 955 q 912 947 852 947 q 1097 955 983 947 l 1097 905 q 977 874 994 886 q 958 840 961 863 q 949 495 951 802 q 941 264 948 319 q 904 141 929 189 q 829 54 878 94 q 720 -4 780 14 q 552 -28 642 -28 q 312 16 401 -28 q 188 131 223 60 q 153 338 153 201 l 153 757 q 145 859 153 838 q 124 879 139 872 q 7 905 109 886 m 671 1225 q 734 1200 708 1225 q 760 1137 760 1174 q 734 1075 760 1101 q 671 1048 708 1048 q 608 1075 634 1048 q 583 1137 583 1101 q 608 1200 583 1174 q 671 1225 634 1225 m 427 1225 q 490 1199 465 1225 q 516 1137 516 1173 q 490 1074 516 1100 q 427 1048 464 1048 q 365 1074 391 1048 q 339 1137 339 1100 q 365 1199 339 1173 q 427 1225 391 1225 z "},"á":{"ha":694,"x_min":54,"x_max":707,"o":"m 151 421 l 90 427 q 115 598 110 524 q 373 658 239 658 q 497 633 451 658 q 562 564 544 608 q 579 429 579 521 l 576 199 q 588 116 576 133 q 617 98 599 98 q 682 122 639 98 l 707 83 q 571 -3 615 18 q 510 -17 539 -17 q 444 4 471 -17 q 406 66 416 25 q 292 -4 324 10 q 213 -18 259 -18 q 99 30 143 -18 q 54 155 54 77 q 84 258 54 211 q 159 322 104 292 l 406 439 q 380 547 404 519 q 309 575 356 575 q 225 544 260 575 q 151 421 189 512 m 406 366 q 264 280 294 313 q 235 193 235 247 q 257 113 235 138 q 313 87 279 87 q 365 104 340 87 q 398 154 389 122 q 406 290 406 186 q 406 366 406 313 m 514 966 l 523 948 q 318 730 420 848 l 258 730 l 339 966 q 429 963 407 963 q 514 966 454 963 z "},"à":{"ha":694,"x_min":54,"x_max":707,"o":"m 151 421 l 90 427 q 115 598 110 524 q 373 658 239 658 q 497 633 451 658 q 562 564 544 608 q 579 429 579 521 l 576 199 q 588 116 576 133 q 617 98 599 98 q 682 122 639 98 l 707 83 q 571 -3 615 18 q 510 -17 539 -17 q 444 4 471 -17 q 406 66 416 25 q 292 -4 324 10 q 213 -18 259 -18 q 99 30 143 -18 q 54 155 54 77 q 84 258 54 211 q 159 322 104 292 l 406 439 q 380 547 404 519 q 309 575 356 575 q 225 544 260 575 q 151 421 189 512 m 406 366 q 264 280 294 313 q 235 193 235 247 q 257 113 235 138 q 313 87 279 87 q 365 104 340 87 q 398 154 389 122 q 406 290 406 186 q 406 366 406 313 m 439 730 l 380 730 q 177 951 267 861 l 188 968 q 269 965 237 965 q 361 968 294 965 q 390 876 379 907 l 439 730 z "},"â":{"ha":694,"x_min":54,"x_max":707,"o":"m 151 421 l 90 427 q 115 598 110 524 q 373 658 239 658 q 497 633 451 658 q 562 564 544 608 q 579 429 579 521 l 576 199 q 588 116 576 133 q 617 98 599 98 q 682 122 639 98 l 707 83 q 571 -3 615 18 q 510 -17 539 -17 q 444 4 471 -17 q 406 66 416 25 q 292 -4 324 10 q 213 -18 259 -18 q 99 30 143 -18 q 54 155 54 77 q 84 258 54 211 q 159 322 104 292 l 406 439 q 380 547 404 519 q 309 575 356 575 q 225 544 260 575 q 151 421 189 512 m 406 366 q 264 280 294 313 q 235 193 235 247 q 257 113 235 138 q 313 87 279 87 q 365 104 340 87 q 398 154 389 122 q 406 290 406 186 q 406 366 406 313 m 562 740 l 491 740 q 341 853 427 792 q 201 740 240 774 l 133 740 q 275 957 219 867 l 350 956 q 427 957 376 956 q 562 740 458 898 z "},"ä":{"ha":694,"x_min":54,"x_max":707,"o":"m 151 421 l 90 427 q 115 598 110 524 q 373 658 239 658 q 497 633 451 658 q 562 564 544 608 q 579 429 579 521 l 576 199 q 588 116 576 133 q 617 98 599 98 q 682 122 639 98 l 707 83 q 571 -3 615 18 q 510 -17 539 -17 q 444 4 471 -17 q 406 66 416 25 q 292 -4 324 10 q 213 -18 259 -18 q 99 30 143 -18 q 54 155 54 77 q 84 258 54 211 q 159 322 104 292 l 406 439 q 380 547 404 519 q 309 575 356 575 q 225 544 260 575 q 151 421 189 512 m 406 366 q 264 280 294 313 q 235 193 235 247 q 257 113 235 138 q 313 87 279 87 q 365 104 340 87 q 398 154 389 122 q 406 290 406 186 q 406 366 406 313 m 469 935 q 532 909 506 935 q 557 847 557 884 q 532 784 557 810 q 469 758 506 758 q 406 784 432 758 q 380 847 380 810 q 406 909 380 884 q 469 935 432 935 m 225 935 q 288 909 262 935 q 314 846 314 883 q 288 784 314 810 q 225 758 262 758 q 163 784 189 758 q 137 846 137 810 q 163 909 137 883 q 225 935 189 935 z "},"ã":{"ha":694,"x_min":54,"x_max":707,"o":"m 151 421 l 90 427 q 115 598 110 524 q 373 658 239 658 q 497 633 451 658 q 562 564 544 608 q 579 429 579 521 l 576 199 q 588 116 576 133 q 617 98 599 98 q 682 122 639 98 l 707 83 q 571 -3 615 18 q 510 -17 539 -17 q 444 4 471 -17 q 406 66 416 25 q 292 -4 324 10 q 213 -18 259 -18 q 99 30 143 -18 q 54 155 54 77 q 84 258 54 211 q 159 322 104 292 l 406 439 q 380 547 404 519 q 309 575 356 575 q 225 544 260 575 q 151 421 189 512 m 406 366 q 264 280 294 313 q 235 193 235 247 q 257 113 235 138 q 313 87 279 87 q 365 104 340 87 q 398 154 389 122 q 406 290 406 186 q 406 366 406 313 m 524 934 l 585 934 q 520 789 562 832 q 449 757 490 757 q 334 789 416 757 q 231 821 252 821 q 200 809 215 821 q 170 757 186 796 l 111 757 q 175 901 132 855 q 243 934 206 934 q 285 928 263 934 q 375 896 307 923 q 469 868 443 868 q 497 879 485 868 q 524 934 509 890 z "},"å":{"ha":694,"x_min":54,"x_max":707,"o":"m 151 421 l 90 427 q 115 598 110 524 q 373 658 239 658 q 497 633 451 658 q 562 564 544 608 q 579 429 579 521 l 576 199 q 588 116 576 133 q 617 98 599 98 q 682 122 639 98 l 707 83 q 571 -3 615 18 q 510 -17 539 -17 q 444 4 471 -17 q 406 66 416 25 q 292 -4 324 10 q 213 -18 259 -18 q 99 30 143 -18 q 54 155 54 77 q 84 258 54 211 q 159 322 104 292 l 406 439 q 380 547 404 519 q 309 575 356 575 q 225 544 260 575 q 151 421 189 512 m 406 366 q 264 280 294 313 q 235 193 235 247 q 257 113 235 138 q 313 87 279 87 q 365 104 340 87 q 398 154 389 122 q 406 290 406 186 q 406 366 406 313 m 348 1002 q 451 960 408 1002 q 494 856 494 917 q 451 753 494 795 q 348 710 408 710 q 244 753 287 710 q 201 856 201 795 q 244 960 201 917 q 348 1002 287 1002 m 348 926 q 298 905 319 926 q 278 856 278 884 q 298 806 278 827 q 348 785 319 785 q 397 806 377 785 q 418 856 418 827 q 397 905 418 884 q 348 926 377 926 z "},"ç":{"ha":623,"x_min":47,"x_max":604,"o":"m 565 418 l 504 422 q 464 555 497 518 q 381 593 431 593 q 281 545 319 593 q 232 361 232 481 q 286 175 232 239 q 416 111 340 111 q 483 122 449 111 q 572 163 516 132 l 604 111 q 438 0 491 23 q 326 -24 386 -24 q 126 61 205 -24 q 47 290 47 145 q 140 554 47 444 q 398 665 233 665 q 604 614 494 665 q 578 486 591 559 q 565 418 570 442 m 312 7 l 367 7 q 321 -63 347 -28 q 369 -84 350 -63 q 389 -137 389 -104 q 347 -221 389 -189 q 178 -263 291 -263 q 135 -262 163 -263 l 135 -212 q 247 -192 216 -212 q 268 -156 268 -178 q 261 -137 268 -144 q 243 -130 254 -130 q 220 -132 236 -130 l 211 -102 q 255 -63 239 -80 q 312 7 271 -47 z "},"é":{"ha":652,"x_min":45,"x_max":617,"o":"m 582 176 l 617 125 q 421 -6 511 35 q 322 -24 382 -24 q 130 51 196 -24 q 45 300 45 144 q 142 564 45 463 q 380 665 238 665 q 571 586 511 665 q 617 425 611 534 q 554 374 583 403 q 409 377 483 377 q 230 374 313 377 q 229 349 229 359 q 273 181 229 254 q 404 109 317 109 q 486 123 447 109 q 582 176 525 137 m 231 444 q 294 443 269 443 q 436 448 352 443 q 407 563 432 534 q 339 591 382 591 q 267 557 297 591 q 231 444 237 524 m 547 966 l 555 948 q 351 730 453 848 l 291 730 l 372 966 q 462 963 439 963 q 547 966 487 963 z "},"è":{"ha":652,"x_min":45,"x_max":617,"o":"m 582 176 l 617 125 q 421 -6 511 35 q 322 -24 382 -24 q 130 51 196 -24 q 45 300 45 144 q 142 564 45 463 q 380 665 238 665 q 571 586 511 665 q 617 425 611 534 q 554 374 583 403 q 409 377 483 377 q 230 374 313 377 q 229 349 229 359 q 273 181 229 254 q 404 109 317 109 q 486 123 447 109 q 582 176 525 137 m 231 444 q 294 443 269 443 q 436 448 352 443 q 407 563 432 534 q 339 591 382 591 q 267 557 297 591 q 231 444 237 524 m 418 730 l 358 730 q 155 951 245 861 l 166 968 q 248 965 215 965 q 340 968 273 965 q 368 876 357 907 l 418 730 z "},"ê":{"ha":652,"x_min":45,"x_max":617,"o":"m 582 176 l 617 125 q 421 -6 511 35 q 322 -24 382 -24 q 130 51 196 -24 q 45 300 45 144 q 142 564 45 463 q 380 665 238 665 q 571 586 511 665 q 617 425 611 534 q 554 374 583 403 q 409 377 483 377 q 230 374 313 377 q 229 349 229 359 q 273 181 229 254 q 404 109 317 109 q 486 123 447 109 q 582 176 525 137 m 231 444 q 294 443 269 443 q 436 448 352 443 q 407 563 432 534 q 339 591 382 591 q 267 557 297 591 q 231 444 237 524 m 567 740 l 496 740 q 347 853 432 792 q 206 740 245 774 l 138 740 q 280 957 224 867 l 355 956 q 433 957 381 956 q 567 740 463 898 z "},"ë":{"ha":652,"x_min":45,"x_max":617,"o":"m 582 176 l 617 125 q 421 -6 511 35 q 322 -24 382 -24 q 130 51 196 -24 q 45 300 45 144 q 142 564 45 463 q 380 665 238 665 q 571 586 511 665 q 617 425 611 534 q 554 374 583 403 q 409 377 483 377 q 230 374 313 377 q 229 349 229 359 q 273 181 229 254 q 404 109 317 109 q 486 123 447 109 q 582 176 525 137 m 231 444 q 294 443 269 443 q 436 448 352 443 q 407 563 432 534 q 339 591 382 591 q 267 557 297 591 q 231 444 237 524 m 481 935 q 544 909 518 935 q 570 847 570 884 q 544 784 570 810 q 481 758 518 758 q 418 784 444 758 q 393 847 393 810 q 418 909 393 884 q 481 935 444 935 m 237 935 q 300 909 275 935 q 326 846 326 883 q 300 784 326 810 q 237 758 274 758 q 175 784 201 758 q 149 846 149 810 q 175 909 149 883 q 237 935 201 935 z "},"í":{"ha":435,"x_min":24,"x_max":414,"o":"m 28 524 l 28 573 q 294 667 182 600 l 328 649 q 316 503 319 567 q 311 200 311 407 q 317 90 311 113 q 333 66 321 74 q 414 40 345 58 l 414 -7 q 242 0 320 0 q 24 -7 168 0 l 24 40 l 42 44 q 113 67 102 58 q 126 102 123 77 q 132 368 132 167 q 126 504 132 485 q 87 529 118 529 q 28 524 61 529 m 383 966 l 392 948 q 187 730 290 848 l 127 730 l 208 966 q 298 963 276 963 q 383 966 323 963 z "},"ì":{"ha":435,"x_min":24,"x_max":414,"o":"m 28 524 l 28 573 q 294 667 182 600 l 328 649 q 316 503 319 567 q 311 200 311 407 q 317 90 311 113 q 333 66 321 74 q 414 40 345 58 l 414 -7 q 242 0 320 0 q 24 -7 168 0 l 24 40 l 42 44 q 113 67 102 58 q 126 102 123 77 q 132 368 132 167 q 126 504 132 485 q 87 529 118 529 q 28 524 61 529 m 309 730 l 249 730 q 46 951 136 861 l 57 968 q 138 965 106 965 q 231 968 163 965 q 259 876 248 907 l 309 730 z "},"î":{"ha":435,"x_min":2,"x_max":431,"o":"m 28 524 l 28 573 q 294 667 182 600 l 328 649 q 316 503 319 567 q 311 200 311 407 q 317 90 311 113 q 333 66 321 74 q 414 40 345 58 l 414 -7 q 242 0 320 0 q 24 -7 168 0 l 24 40 l 42 44 q 113 67 102 58 q 126 102 123 77 q 132 368 132 167 q 126 504 132 485 q 87 529 118 529 q 28 524 61 529 m 431 740 l 360 740 q 210 853 296 792 q 70 740 109 774 l 2 740 q 144 957 88 867 l 219 956 q 296 957 245 956 q 431 740 327 898 z "},"ï":{"ha":435,"x_min":6,"x_max":427,"o":"m 28 524 l 28 573 q 294 667 182 600 l 328 649 q 316 503 319 567 q 311 200 311 407 q 317 90 311 113 q 333 66 321 74 q 414 40 345 58 l 414 -7 q 242 0 320 0 q 24 -7 168 0 l 24 40 l 42 44 q 113 67 102 58 q 126 102 123 77 q 132 368 132 167 q 126 504 132 485 q 87 529 118 529 q 28 524 61 529 m 338 935 q 401 909 375 935 q 427 847 427 884 q 401 784 427 810 q 338 758 375 758 q 275 784 301 758 q 250 847 250 810 q 275 909 250 884 q 338 935 301 935 m 94 935 q 157 909 132 935 q 183 846 183 883 q 157 784 183 810 q 94 758 131 758 q 32 784 58 758 q 6 846 6 810 q 32 909 6 883 q 94 935 58 935 z "},"ñ":{"ha":781,"x_min":16,"x_max":779,"o":"m 16 519 l 16 568 q 165 608 106 587 q 283 661 224 629 l 318 641 q 305 528 309 589 q 418 636 380 614 q 508 658 456 658 q 596 638 559 658 q 651 588 633 618 q 674 507 669 558 q 677 354 677 475 l 677 233 q 680 96 677 117 q 693 66 682 75 q 753 46 703 57 q 779 40 761 44 l 779 -7 q 603 0 665 0 q 417 -7 540 0 l 417 40 q 481 63 469 53 q 495 98 492 74 q 499 323 499 132 q 488 486 499 458 q 416 530 469 530 q 347 503 378 530 q 307 433 315 475 q 298 248 298 391 q 303 89 298 120 q 315 64 306 72 q 379 40 325 56 l 379 -7 q 207 0 276 0 q 16 -7 142 0 l 16 40 q 101 68 91 60 q 114 109 111 77 q 120 299 120 182 q 116 495 120 477 q 75 525 108 525 q 16 519 54 525 m 568 934 l 628 934 q 564 789 605 832 q 492 757 533 757 q 377 789 459 757 q 274 821 296 821 q 244 809 258 821 q 214 757 229 796 l 154 757 q 218 901 176 855 q 287 934 250 934 q 328 928 307 934 q 418 896 350 923 q 512 868 486 868 q 541 879 528 868 q 568 934 553 890 z "},"ó":{"ha":766,"x_min":50,"x_max":717,"o":"m 50 329 q 143 572 50 479 q 391 665 236 665 q 630 579 544 665 q 717 342 717 493 q 625 73 717 169 q 377 -24 533 -24 q 135 66 220 -24 q 50 329 50 155 m 252 365 q 306 90 252 174 q 393 42 336 42 q 474 83 446 42 q 515 288 515 142 q 464 551 515 473 q 376 600 433 600 q 294 557 323 600 q 252 365 252 500 m 550 966 l 559 948 q 354 730 456 848 l 294 730 l 375 966 q 465 963 443 963 q 550 966 490 963 z "},"ò":{"ha":766,"x_min":50,"x_max":717,"o":"m 50 329 q 143 572 50 479 q 391 665 236 665 q 630 579 544 665 q 717 342 717 493 q 625 73 717 169 q 377 -24 533 -24 q 135 66 220 -24 q 50 329 50 155 m 252 365 q 306 90 252 174 q 393 42 336 42 q 474 83 446 42 q 515 288 515 142 q 464 551 515 473 q 376 600 433 600 q 294 557 323 600 q 252 365 252 500 m 475 730 l 416 730 q 213 951 303 861 l 224 968 q 305 965 273 965 q 397 968 330 965 q 426 876 415 907 l 475 730 z "},"ô":{"ha":766,"x_min":50,"x_max":717,"o":"m 50 329 q 143 572 50 479 q 391 665 236 665 q 630 579 544 665 q 717 342 717 493 q 625 73 717 169 q 377 -24 533 -24 q 135 66 220 -24 q 50 329 50 155 m 252 365 q 306 90 252 174 q 393 42 336 42 q 474 83 446 42 q 515 288 515 142 q 464 551 515 473 q 376 600 433 600 q 294 557 323 600 q 252 365 252 500 m 597 740 l 527 740 q 377 853 463 792 q 237 740 276 774 l 169 740 q 311 957 255 867 l 386 956 q 463 957 412 956 q 597 740 494 898 z "},"ö":{"ha":766,"x_min":50,"x_max":717,"o":"m 50 329 q 143 572 50 479 q 391 665 236 665 q 630 579 544 665 q 717 342 717 493 q 625 73 717 169 q 377 -24 533 -24 q 135 66 220 -24 q 50 329 50 155 m 252 365 q 306 90 252 174 q 393 42 336 42 q 474 83 446 42 q 515 288 515 142 q 464 551 515 473 q 376 600 433 600 q 294 557 323 600 q 252 365 252 500 m 505 935 q 568 909 542 935 q 593 847 593 884 q 568 784 593 810 q 505 758 542 758 q 442 784 468 758 q 416 847 416 810 q 442 909 416 884 q 505 935 468 935 m 261 935 q 324 909 298 935 q 350 846 350 883 q 324 784 350 810 q 261 758 298 758 q 199 784 224 758 q 173 846 173 810 q 199 909 173 883 q 261 935 224 935 z "},"õ":{"ha":766,"x_min":50,"x_max":717,"o":"m 50 329 q 143 572 50 479 q 391 665 236 665 q 630 579 544 665 q 717 342 717 493 q 625 73 717 169 q 377 -24 533 -24 q 135 66 220 -24 q 50 329 50 155 m 252 365 q 306 90 252 174 q 393 42 336 42 q 474 83 446 42 q 515 288 515 142 q 464 551 515 473 q 376 600 433 600 q 294 557 323 600 q 252 365 252 500 m 560 934 l 621 934 q 556 789 597 832 q 485 757 526 757 q 370 789 452 757 q 267 821 288 821 q 236 809 251 821 q 206 757 222 796 l 146 757 q 211 901 168 855 q 279 934 242 934 q 321 928 299 934 q 411 896 342 923 q 505 868 479 868 q 533 879 521 868 q 560 934 545 890 z "},"ú":{"ha":766,"x_min":-7,"x_max":760,"o":"m 760 98 l 760 47 q 605 19 663 35 q 490 -20 547 4 l 458 0 q 470 98 466 47 q 350 1 384 18 q 271 -17 316 -17 q 183 2 220 -17 q 127 49 146 20 q 104 125 109 78 q 101 279 101 155 l 102 414 q 87 544 102 526 q -7 569 72 562 l -7 614 q 260 659 148 626 l 291 640 q 282 539 286 606 q 277 328 277 419 q 295 147 277 188 q 366 106 314 106 q 435 132 406 106 q 473 211 464 158 q 479 425 479 244 q 466 545 479 530 q 372 569 454 560 l 372 614 q 541 635 490 626 q 640 659 591 644 l 672 640 q 659 525 662 579 q 654 253 654 435 q 661 118 654 134 q 703 96 669 96 l 711 96 q 760 98 728 97 m 550 966 l 559 948 q 354 730 456 848 l 294 730 l 375 966 q 465 963 443 963 q 550 966 490 963 z "},"ù":{"ha":766,"x_min":-7,"x_max":760,"o":"m 760 98 l 760 47 q 605 19 663 35 q 490 -20 547 4 l 458 0 q 470 98 466 47 q 350 1 384 18 q 271 -17 316 -17 q 183 2 220 -17 q 127 49 146 20 q 104 125 109 78 q 101 279 101 155 l 102 414 q 87 544 102 526 q -7 569 72 562 l -7 614 q 260 659 148 626 l 291 640 q 282 539 286 606 q 277 328 277 419 q 295 147 277 188 q 366 106 314 106 q 435 132 406 106 q 473 211 464 158 q 479 425 479 244 q 466 545 479 530 q 372 569 454 560 l 372 614 q 541 635 490 626 q 640 659 591 644 l 672 640 q 659 525 662 579 q 654 253 654 435 q 661 118 654 134 q 703 96 669 96 l 711 96 q 760 98 728 97 m 475 730 l 416 730 q 213 951 303 861 l 224 968 q 305 965 273 965 q 397 968 330 965 q 426 876 415 907 l 475 730 z "},"û":{"ha":766,"x_min":-7,"x_max":760,"o":"m 760 98 l 760 47 q 605 19 663 35 q 490 -20 547 4 l 458 0 q 470 98 466 47 q 350 1 384 18 q 271 -17 316 -17 q 183 2 220 -17 q 127 49 146 20 q 104 125 109 78 q 101 279 101 155 l 102 414 q 87 544 102 526 q -7 569 72 562 l -7 614 q 260 659 148 626 l 291 640 q 282 539 286 606 q 277 328 277 419 q 295 147 277 188 q 366 106 314 106 q 435 132 406 106 q 473 211 464 158 q 479 425 479 244 q 466 545 479 530 q 372 569 454 560 l 372 614 q 541 635 490 626 q 640 659 591 644 l 672 640 q 659 525 662 579 q 654 253 654 435 q 661 118 654 134 q 703 96 669 96 l 711 96 q 760 98 728 97 m 597 740 l 527 740 q 377 853 463 792 q 237 740 276 774 l 169 740 q 311 957 255 867 l 386 956 q 463 957 412 956 q 597 740 494 898 z "},"ü":{"ha":766,"x_min":-7,"x_max":760,"o":"m 760 98 l 760 47 q 605 19 663 35 q 490 -20 547 4 l 458 0 q 470 98 466 47 q 350 1 384 18 q 271 -17 316 -17 q 183 2 220 -17 q 127 49 146 20 q 104 125 109 78 q 101 279 101 155 l 102 414 q 87 544 102 526 q -7 569 72 562 l -7 614 q 260 659 148 626 l 291 640 q 282 539 286 606 q 277 328 277 419 q 295 147 277 188 q 366 106 314 106 q 435 132 406 106 q 473 211 464 158 q 479 425 479 244 q 466 545 479 530 q 372 569 454 560 l 372 614 q 541 635 490 626 q 640 659 591 644 l 672 640 q 659 525 662 579 q 654 253 654 435 q 661 118 654 134 q 703 96 669 96 l 711 96 q 760 98 728 97 m 505 935 q 568 909 542 935 q 593 847 593 884 q 568 784 593 810 q 505 758 542 758 q 442 784 468 758 q 416 847 416 810 q 442 909 416 884 q 505 935 468 935 m 261 935 q 324 909 298 935 q 350 846 350 883 q 324 784 350 810 q 261 758 298 758 q 199 784 224 758 q 173 846 173 810 q 199 909 173 883 q 261 935 224 935 z "},"†":{"ha":665,"x_min":42,"x_max":628,"o":"m 214 989 l 458 989 q 370 679 397 791 q 628 754 519 718 l 628 535 q 370 610 507 576 l 406 166 l 458 -291 l 214 -291 l 277 313 q 299 610 287 425 q 42 535 136 566 l 42 754 q 205 705 83 741 q 299 679 270 686 q 214 989 275 783 z "},"°":{"ha":550,"x_min":40,"x_max":509,"o":"m 275 939 q 441 870 372 939 q 509 704 509 802 q 440 538 509 607 q 275 469 372 469 q 109 538 178 469 q 40 704 40 607 q 109 870 40 802 q 275 939 177 939 m 275 850 q 171 808 214 850 q 129 705 129 765 q 172 602 129 644 q 275 559 214 559 q 378 602 335 559 q 420 705 420 644 q 378 808 420 765 q 275 850 335 850 z "},"¢":{"ha":652,"x_min":77,"x_max":635,"o":"m 334 969 l 414 969 l 414 812 l 440 812 q 635 764 525 812 q 597 568 609 659 l 534 572 q 496 705 528 664 q 414 742 471 735 l 414 262 q 454 258 442 258 q 516 270 484 258 q 602 313 549 281 l 635 262 q 502 165 549 193 q 414 127 455 138 l 414 -26 l 334 -26 l 334 127 q 199 173 256 136 q 109 283 142 210 q 77 442 77 356 q 159 687 77 584 q 334 804 222 767 l 334 969 m 334 724 q 279 657 293 688 q 251 509 251 592 q 278 371 251 431 q 334 300 296 333 l 334 724 z "},"£":{"ha":753,"x_min":43,"x_max":739,"o":"m 634 740 l 582 751 q 564 853 582 822 q 479 901 537 901 q 398 864 431 901 q 366 755 366 827 q 378 627 366 713 q 387 540 385 576 q 448 539 444 539 q 573 547 504 539 l 582 533 q 541 454 559 495 q 397 463 467 462 q 400 385 400 418 q 369 248 400 303 q 239 115 337 192 q 339 163 306 152 q 400 174 373 174 q 508 146 435 174 q 577 126 559 126 q 694 195 625 126 l 739 155 q 610 9 656 43 q 526 -24 565 -24 q 391 10 480 -24 q 262 43 302 43 q 190 29 231 43 q 81 -24 149 15 l 43 40 q 184 172 149 113 q 218 325 218 230 q 210 463 218 367 q 75 454 140 463 l 66 469 q 104 543 88 505 q 200 540 153 541 q 184 677 184 620 q 271 888 184 806 q 499 970 358 970 q 715 894 618 970 q 634 740 667 819 z "},"§":{"ha":652,"x_min":47,"x_max":606,"o":"m 501 744 l 444 762 q 448 819 448 798 q 419 895 448 867 q 344 923 391 923 q 273 898 300 923 q 246 838 246 873 q 268 781 246 810 q 412 651 290 751 q 570 494 534 551 q 606 376 606 437 q 569 250 606 309 q 437 117 533 191 q 538 13 513 54 q 564 -75 564 -28 q 532 -183 564 -132 q 441 -263 501 -235 q 309 -292 382 -292 q 183 -270 242 -292 q 71 -205 123 -248 q 129 -102 110 -140 q 159 -43 148 -64 l 210 -63 q 203 -119 203 -100 q 233 -195 203 -166 q 311 -224 263 -224 q 377 -200 352 -224 q 403 -141 403 -176 q 381 -82 403 -113 q 275 18 360 -52 q 85 204 124 144 q 47 330 47 264 q 90 463 47 401 q 218 583 133 524 q 118 688 144 644 q 91 775 91 732 q 159 926 91 862 q 338 989 227 989 q 478 964 410 989 q 578 907 522 948 q 501 744 528 814 m 386 159 q 437 225 421 193 q 453 293 453 256 q 425 383 453 340 q 269 540 382 448 q 199 405 199 477 q 214 340 199 373 q 265 270 230 307 l 386 159 z "},"•":{"ha":492,"x_min":52,"x_max":440,"o":"m 440 458 q 383 321 440 378 q 246 264 326 264 q 109 321 165 264 q 52 458 52 378 q 109 595 52 538 q 246 652 165 652 q 383 595 326 652 q 440 458 440 538 z "},"¶":{"ha":753,"x_min":1,"x_max":752,"o":"m 433 868 l 433 -300 l 366 -300 l 366 291 q 161 333 239 296 q 42 445 83 370 q 1 612 1 519 q 56 795 1 720 q 186 895 112 871 q 454 920 261 920 l 752 920 l 752 890 l 722 890 q 658 875 679 890 q 629 836 637 861 q 624 752 624 821 l 624 -300 l 557 -300 l 557 868 l 433 868 z "},"ß":{"ha":796,"x_min":19,"x_max":762,"o":"m 399 195 l 452 195 q 484 76 454 114 q 541 47 506 47 q 597 70 576 47 q 619 132 619 92 q 593 220 619 178 q 395 450 559 275 q 354 519 354 493 q 391 594 354 547 q 490 812 490 722 q 467 891 490 864 q 408 918 444 918 q 343 893 372 918 q 306 815 313 867 q 299 581 299 762 q 305 -7 299 130 q 170 0 218 0 q 19 -7 127 0 l 19 40 q 105 73 89 56 q 119 138 117 86 q 122 561 122 191 q 24 554 73 559 l 24 600 q 122 647 73 619 l 122 688 q 148 827 122 781 q 271 943 186 897 q 453 989 355 989 q 603 948 555 989 q 652 844 652 906 q 632 761 652 802 q 577 689 612 720 q 515 631 523 642 q 509 614 509 623 q 573 532 509 587 q 724 363 666 454 q 762 239 762 305 q 691 56 762 130 q 515 -17 620 -17 q 366 14 448 -17 q 399 195 385 92 z "},"®":{"ha":1042,"x_min":40,"x_max":1002,"o":"m 521 941 q 758 879 642 941 q 938 701 873 817 q 1002 460 1002 585 q 939 220 1002 335 q 760 42 875 106 q 521 -21 646 -21 q 282 42 396 -21 q 104 220 168 106 q 40 460 40 335 q 105 701 40 585 q 285 879 170 817 q 521 941 400 941 m 521 880 q 314 826 415 880 q 157 670 214 772 q 100 460 100 569 q 156 251 100 351 q 312 95 212 151 q 521 39 412 39 q 730 95 630 39 q 886 251 830 151 q 941 460 941 351 q 885 670 941 569 q 728 826 829 772 q 521 880 627 880 m 264 739 l 509 739 q 682 709 633 739 q 750 591 750 667 q 720 505 750 543 q 629 450 690 467 l 722 281 q 764 226 742 244 q 793 214 774 217 l 793 191 l 629 191 l 490 440 l 458 440 l 458 306 q 474 232 458 248 q 540 214 489 216 l 540 191 l 253 191 l 253 214 q 307 228 295 214 q 324 306 324 248 l 324 626 q 312 697 324 682 q 264 716 300 712 l 264 739 m 458 475 q 496 471 481 471 q 573 505 541 471 q 604 593 604 538 q 575 680 604 650 q 484 709 545 709 l 458 709 l 458 475 z "},"©":{"ha":1042,"x_min":40,"x_max":1002,"o":"m 521 941 q 758 879 642 941 q 938 701 873 817 q 1002 460 1002 585 q 939 220 1002 335 q 760 42 875 106 q 521 -21 646 -21 q 282 42 396 -21 q 104 220 168 106 q 40 460 40 335 q 105 701 40 585 q 285 879 170 817 q 521 941 400 941 m 521 880 q 314 826 415 880 q 157 670 214 772 q 100 460 100 569 q 156 251 100 351 q 312 95 212 151 q 521 39 412 39 q 730 95 630 39 q 886 251 830 151 q 941 460 941 351 q 885 670 941 569 q 728 826 829 772 q 521 880 627 880 m 748 750 l 748 571 l 722 571 q 663 679 709 640 q 555 718 617 718 q 431 658 481 718 q 380 471 380 599 q 430 275 380 334 q 552 217 479 217 q 729 311 652 217 l 729 263 q 513 177 647 177 q 307 254 386 177 q 228 453 228 331 q 313 667 228 583 q 526 751 397 751 q 660 724 585 751 q 691 715 682 715 q 712 724 703 715 q 722 750 720 732 l 748 750 z "},"™":{"ha":1389,"x_min":-2,"x_max":1396,"o":"m -2 920 l 525 920 l 525 766 l 501 766 q 468 855 498 826 q 370 884 437 884 l 344 884 l 344 486 q 356 414 344 429 q 414 395 371 395 l 414 372 l 106 372 l 106 395 q 165 412 154 399 q 176 488 176 425 l 176 884 l 152 884 q 56 857 87 884 q 20 766 25 829 l -2 766 l -2 920 m 600 920 l 849 920 l 1006 584 l 1161 920 l 1396 920 l 1396 894 q 1351 887 1364 894 q 1332 863 1339 880 q 1328 803 1328 851 l 1328 483 q 1338 418 1328 431 q 1396 395 1354 398 l 1396 372 l 1084 372 l 1084 395 q 1147 412 1133 397 q 1161 483 1161 427 l 1161 826 l 944 372 l 928 372 l 712 826 l 712 486 q 716 429 712 439 q 737 405 722 414 q 790 395 753 396 l 790 372 l 600 372 l 600 395 q 650 404 638 397 q 668 425 663 410 q 674 487 674 439 l 674 804 q 668 866 674 851 q 647 888 661 881 q 600 894 635 894 l 600 920 z "},"´":{"ha":463,"x_min":142,"x_max":407,"o":"m 398 966 l 407 948 q 202 730 304 848 l 142 730 l 223 966 q 313 963 291 963 q 398 966 338 963 z "},"¨":{"ha":463,"x_min":21,"x_max":441,"o":"m 353 935 q 416 909 390 935 q 441 847 441 884 q 416 784 441 810 q 353 758 390 758 q 290 784 316 758 q 264 847 264 810 q 290 909 264 884 q 353 935 316 935 m 109 935 q 172 909 146 935 q 198 846 198 883 q 172 784 198 810 q 109 758 146 758 q 47 784 73 758 q 21 846 21 810 q 47 909 21 883 q 109 935 73 935 z "},"≠":{"ha":791,"x_min":26,"x_max":768,"o":"m 26 585 l 433 585 l 574 943 l 665 943 l 526 585 l 768 585 l 768 479 l 485 479 l 401 265 l 768 265 l 768 159 l 360 159 l 219 -198 l 127 -198 l 268 159 l 26 159 l 26 265 l 309 265 l 393 479 l 26 479 l 26 585 z "},"Æ":{"ha":1504,"x_min":-14,"x_max":1480,"o":"m 490 905 l 490 955 q 859 947 724 947 q 1403 955 1166 947 q 1402 926 1402 936 q 1418 710 1402 833 l 1362 710 q 1300 854 1318 836 q 1223 871 1282 871 l 956 871 q 949 534 949 745 l 1101 534 q 1177 550 1162 534 q 1223 672 1206 579 l 1280 672 q 1273 484 1273 494 q 1280 319 1273 422 l 1223 319 q 1217 355 1219 342 q 1186 441 1204 425 q 1099 458 1168 458 l 949 458 l 949 79 l 1208 79 q 1279 86 1260 79 q 1314 106 1299 92 q 1400 231 1342 136 q 1419 260 1406 240 l 1480 260 q 1419 75 1437 134 l 1392 -7 q 1296 -5 1354 -6 l 1190 -3 q 951 0 979 0 q 591 -7 882 0 l 591 43 q 715 71 691 59 q 739 94 733 79 q 745 208 745 113 l 745 323 l 389 323 l 248 113 q 239 89 239 98 q 249 69 239 76 q 343 43 266 57 l 343 -7 q 170 0 226 0 q -14 -7 136 0 l -14 43 q 78 70 50 51 q 148 148 106 89 l 414 529 l 625 838 q 632 859 632 850 q 625 871 632 867 q 490 905 612 879 m 745 398 l 745 867 q 435 398 536 547 l 745 398 z "},"Ø":{"ha":1129,"x_min":59,"x_max":1069,"o":"m 956 831 q 1069 505 1069 703 q 1003 225 1069 351 q 824 36 937 100 q 550 -28 711 -28 q 238 56 353 -28 l 133 -57 l 73 -2 l 177 111 q 90 256 120 174 q 59 463 59 337 q 202 833 59 692 q 587 975 345 975 q 894 887 777 975 l 995 996 l 1057 939 l 956 831 m 320 266 l 781 764 q 703 859 747 830 q 564 900 642 900 q 421 856 484 900 q 326 714 358 811 q 294 482 294 617 q 320 266 294 358 m 811 674 l 353 181 q 433 85 389 115 q 574 45 491 45 q 718 89 659 45 q 805 231 776 133 q 835 457 835 328 q 811 674 835 567 z "},"∞":{"ha":990,"x_min":33,"x_max":951,"o":"m 440 452 q 541 599 486 558 q 691 640 596 640 q 876 562 800 640 q 951 357 951 483 q 878 153 951 233 q 714 73 804 73 q 589 122 647 73 q 486 267 551 155 q 391 145 442 182 q 266 109 339 109 q 101 178 168 109 q 33 359 33 248 q 96 539 33 471 q 241 608 158 608 q 345 577 300 608 q 440 452 389 547 m 505 315 q 606 173 556 209 q 717 136 655 136 q 856 196 800 136 q 912 357 912 256 q 853 522 912 457 q 721 587 794 587 q 639 564 674 587 q 576 488 604 540 q 505 315 559 457 m 420 400 q 345 510 387 475 q 239 545 302 545 q 119 495 168 545 q 71 359 71 444 q 118 215 71 269 q 227 161 166 161 q 340 219 291 161 q 420 400 372 257 z "},"±":{"ha":926,"x_min":88,"x_max":838,"o":"m 88 636 l 399 636 l 399 949 l 525 949 l 525 636 l 838 636 l 838 511 l 525 511 l 525 200 l 399 200 l 399 511 l 88 511 l 88 636 m 88 89 l 838 89 l 838 -37 l 88 -37 l 88 89 z "},"≤":{"ha":791,"x_min":26,"x_max":770,"o":"m 769 149 l 27 461 l 27 557 l 769 869 l 769 753 l 171 509 l 769 265 l 769 149 m 26 -20 l 770 -20 l 770 -125 l 26 -125 l 26 -20 z "},"≥":{"ha":791,"x_min":26,"x_max":770,"o":"m 27 869 l 769 557 l 769 461 l 27 149 l 27 264 l 625 509 l 27 753 l 27 869 m 26 -20 l 770 -20 l 770 -125 l 26 -125 l 26 -20 z "},"¥":{"ha":1042,"x_min":1,"x_max":1044,"o":"m 448 740 l 718 740 l 779 853 q 783 867 783 861 q 773 883 783 876 q 683 905 764 890 l 683 955 l 716 953 q 867 947 829 947 q 1044 955 909 947 l 1044 905 q 942 878 968 890 q 897 843 916 865 q 829 740 879 822 l 1003 740 l 1003 665 l 783 665 l 703 533 l 1003 533 l 1003 458 l 657 458 l 627 409 l 627 165 q 634 92 628 106 q 659 68 641 77 q 757 47 671 63 l 779 43 l 779 -7 q 527 0 595 0 q 267 -7 478 0 l 267 43 q 299 48 288 47 q 393 71 372 59 q 413 95 406 78 q 419 195 419 113 l 419 395 q 378 458 397 428 l 41 458 l 41 533 l 332 533 l 249 665 l 41 665 l 41 740 l 202 740 q 109 866 137 844 q 1 905 80 888 l 1 955 l 134 950 q 243 947 225 947 q 486 955 309 947 l 486 905 q 397 878 409 887 q 385 859 385 869 q 395 831 385 848 l 448 740 m 490 665 l 568 530 l 586 500 q 677 665 652 621 l 490 665 z "},"µ":{"ha":766,"x_min":37,"x_max":760,"o":"m 87 634 l 275 634 l 275 170 q 290 92 276 110 q 333 74 304 74 q 391 95 363 74 q 444 156 419 115 l 444 634 l 633 634 l 633 210 l 633 180 q 644 104 633 119 q 679 83 660 83 q 707 100 695 83 q 731 181 726 124 l 760 181 q 707 33 758 85 q 585 -19 657 -19 q 501 7 536 -19 q 450 87 467 33 q 352 6 399 31 q 252 -19 305 -19 q 205 -12 225 -19 q 151 19 184 -5 q 155 -46 151 -22 q 175 -129 159 -71 q 191 -209 191 -186 q 169 -275 191 -252 q 111 -299 146 -299 q 57 -278 76 -299 q 37 -218 37 -258 q 54 -126 37 -190 q 81 8 75 -41 q 87 176 87 57 l 87 634 z "},"∂":{"ha":680,"x_min":41,"x_max":672,"o":"m 627 486 q 635 612 635 563 q 571 801 635 734 q 401 868 507 868 q 281 841 329 868 q 197 760 234 814 l 165 760 q 278 916 218 867 q 424 964 338 964 q 543 931 485 964 q 636 824 601 898 q 672 624 672 750 q 568 193 672 384 q 271 -21 450 -21 q 103 40 165 -21 q 41 206 41 101 q 72 362 41 286 q 152 491 104 438 q 259 575 200 544 q 415 616 336 616 q 516 594 471 616 q 590 543 561 573 q 627 486 608 524 m 616 426 q 537 540 589 501 q 421 578 484 578 q 301 536 360 578 q 199 389 242 494 q 155 178 155 283 q 193 59 155 101 q 288 18 230 18 q 458 106 371 18 q 616 426 568 218 z "},"∑":{"ha":990,"x_min":29,"x_max":963,"o":"m 920 -300 l 29 -300 l 29 -275 l 483 336 l 29 938 l 29 963 l 896 963 l 914 734 l 887 734 q 834 868 876 828 q 718 908 793 908 l 216 908 l 597 395 l 171 -180 l 726 -180 q 829 -161 773 -180 q 893 -116 868 -149 q 936 -13 919 -83 l 963 -18 l 920 -300 z "},"∏":{"ha":1143,"x_min":31,"x_max":1112,"o":"m 841 975 l 302 975 l 302 -7 q 327 -88 302 -64 q 412 -113 352 -113 l 436 -113 l 436 -138 l 31 -138 l 31 -113 l 55 -113 q 142 -86 119 -113 q 165 -7 165 -60 l 165 897 q 140 978 165 954 q 55 1002 115 1002 l 31 1002 l 31 1028 l 1112 1028 l 1112 1002 l 1088 1002 q 1002 976 1025 1002 q 979 897 979 950 l 979 -7 q 1004 -88 979 -64 q 1088 -113 1029 -113 l 1112 -113 l 1112 -138 l 707 -138 l 707 -113 l 731 -113 q 818 -86 795 -113 q 841 -7 841 -60 l 841 975 z "},"π":{"ha":738,"x_min":30,"x_max":682,"o":"m 682 621 l 682 522 l 525 522 q 506 359 513 452 q 498 212 498 267 q 523 122 498 151 q 583 94 547 94 q 633 113 613 94 q 658 170 654 132 l 682 170 q 631 24 670 68 q 543 -19 591 -19 q 458 28 492 -19 q 424 216 424 75 q 431 354 424 277 q 450 522 443 478 l 290 522 l 275 318 q 233 64 257 151 q 191 -7 218 16 q 159 -19 178 -19 q 115 -2 132 -19 q 98 37 98 14 q 104 73 98 56 q 142 129 109 83 q 176 195 164 159 q 199 311 189 231 q 215 522 201 323 l 195 522 q 118 503 148 522 q 54 427 88 484 l 30 427 q 85 552 52 509 q 150 609 119 596 q 250 621 181 621 l 682 621 z "},"∫":{"ha":376,"x_min":-2,"x_max":378,"o":"m 134 607 l 146 1001 q 180 1174 151 1105 q 230 1241 198 1219 q 293 1263 262 1263 q 352 1241 327 1263 q 378 1191 378 1218 q 360 1140 378 1159 q 315 1120 342 1120 q 264 1145 292 1120 q 237 1158 248 1158 q 217 1148 225 1158 q 210 1115 210 1139 q 216 1017 210 1087 q 241 567 241 738 q 230 167 241 519 q 169 -104 224 -33 q 78 -149 132 -149 q 20 -126 43 -149 q -2 -67 -2 -103 q 15 -18 -2 -37 q 59 0 33 0 q 106 -22 86 0 q 139 -43 125 -43 q 158 -34 151 -43 q 165 -2 165 -24 q 159 79 165 26 q 142 309 148 176 q 134 607 134 477 z "},"ª":{"ha":492,"x_min":50,"x_max":486,"o":"m 126 826 l 73 831 q 90 938 86 894 q 262 975 172 975 q 371 944 339 975 q 403 835 403 913 l 403 819 q 401 700 401 745 q 407 652 401 663 q 420 645 412 645 q 463 663 430 645 l 486 631 q 396 579 421 589 q 351 568 371 568 q 305 580 324 568 q 278 612 286 592 q 214 576 237 585 q 163 568 191 568 q 80 598 111 568 q 50 674 50 627 q 64 728 50 704 q 111 772 79 752 q 205 814 127 783 l 275 843 q 261 903 274 888 q 222 918 248 918 q 172 899 193 918 q 126 826 151 881 m 275 789 q 199 745 215 763 q 182 697 182 726 q 194 652 182 667 q 223 638 205 638 q 262 657 249 638 q 275 753 275 675 l 275 789 z "},"º":{"ha":521,"x_min":37,"x_max":484,"o":"m 37 772 q 98 918 37 860 q 266 975 159 975 q 427 921 370 975 q 484 777 484 866 q 421 620 484 680 q 251 560 359 560 q 94 617 151 560 q 37 772 37 673 m 184 793 q 216 639 184 687 q 267 610 235 610 q 312 634 296 610 q 336 749 336 668 q 306 899 336 852 q 254 927 287 927 q 207 903 224 927 q 184 793 184 871 z "},"Ω":{"ha":1099,"x_min":39,"x_max":1061,"o":"m 435 243 l 458 0 l 39 0 l 39 256 l 63 256 q 74 205 65 218 q 111 172 88 182 q 171 165 126 165 l 393 165 l 389 212 q 213 282 279 237 q 110 402 147 327 q 73 559 73 478 q 173 805 73 700 q 550 941 302 941 q 927 805 798 941 q 1027 559 1027 700 q 990 402 1027 478 q 887 282 953 327 q 711 212 821 237 l 707 165 l 929 165 q 989 172 975 165 q 1026 204 1012 182 q 1037 256 1035 218 l 1061 256 l 1061 0 l 642 0 l 665 243 q 749 319 722 267 q 789 545 789 398 q 760 742 789 673 q 673 849 730 811 q 550 888 616 888 q 427 849 484 888 q 340 741 370 811 q 311 551 311 671 q 351 320 311 399 q 435 243 378 267 z "},"æ":{"ha":983,"x_min":42,"x_max":949,"o":"m 140 422 l 79 428 q 105 600 91 486 q 235 643 171 629 q 361 658 299 658 q 469 635 425 658 q 522 587 496 621 q 714 665 597 665 q 883 607 827 665 q 945 425 939 549 q 884 375 911 406 q 768 378 823 378 q 559 375 643 378 q 614 166 566 224 q 732 109 662 109 q 914 176 818 109 l 949 125 q 769 3 827 29 q 655 -24 712 -24 q 540 5 589 -24 q 446 97 491 35 q 325 5 372 27 q 219 -17 278 -17 q 88 29 134 -17 q 42 153 42 75 q 59 233 42 197 q 135 319 77 269 l 399 439 q 393 505 399 486 q 361 556 384 538 q 299 574 338 574 q 212 542 251 574 q 140 422 173 509 m 563 442 q 766 447 728 444 q 743 556 765 519 q 675 592 720 592 q 602 561 631 592 q 563 442 572 529 m 420 151 q 402 211 406 190 q 395 311 395 253 q 397 368 395 331 q 258 284 284 315 q 222 191 222 243 q 245 115 222 140 q 308 90 268 90 q 365 103 338 90 q 420 151 391 117 z "},"ø":{"ha":766,"x_min":50,"x_max":717,"o":"m 647 561 q 717 342 717 473 q 625 72 717 168 q 375 -24 533 -24 q 181 26 256 -24 l 111 -55 l 52 -4 l 124 79 q 50 316 50 174 q 142 571 50 477 q 388 665 234 665 q 497 653 452 665 q 589 612 542 641 l 655 689 l 713 637 l 647 561 m 261 236 l 489 498 q 441 577 469 555 q 376 600 413 600 q 294 558 323 600 q 252 369 252 500 q 261 236 252 313 m 509 401 l 281 141 q 330 64 302 85 q 393 42 358 42 q 474 83 446 42 q 515 289 515 142 q 509 401 515 349 z "},"¿":{"ha":564,"x_min":48,"x_max":534,"o":"m 318 707 q 403 672 368 707 q 438 587 438 637 q 403 501 438 536 q 318 466 368 466 q 233 501 268 466 q 197 587 197 536 q 232 672 197 637 q 318 707 267 707 m 476 -31 l 534 -31 q 503 -237 509 -142 q 282 -292 372 -292 q 106 -229 163 -292 q 48 -85 48 -167 q 60 -13 48 -48 q 102 67 72 22 q 179 170 117 91 q 248 259 242 249 q 273 313 262 280 q 294 408 285 347 l 362 408 q 344 256 360 319 q 277 83 328 192 q 238 -45 238 1 q 268 -124 238 -94 q 342 -154 297 -154 q 417 -130 386 -154 q 476 -31 448 -105 z "},"¡":{"ha":478,"x_min":114,"x_max":361,"o":"m 241 707 q 326 672 291 707 q 361 587 361 637 q 326 502 361 537 q 241 467 290 467 q 155 502 191 467 q 120 587 120 537 q 155 672 120 637 q 241 707 191 707 m 147 -291 l 114 -265 q 211 408 153 -55 l 274 408 q 359 -216 325 -16 q 147 -291 227 -258 z "},"¬":{"ha":926,"x_min":88,"x_max":838,"o":"m 88 686 l 838 686 l 838 231 l 713 231 l 712 561 l 88 561 l 88 686 z "},"√":{"ha":767,"x_min":59,"x_max":764,"o":"m 714 1267 l 764 1267 l 553 -53 l 216 640 l 82 578 l 59 621 l 263 724 l 538 165 l 714 1267 z "},"ƒ":{"ha":708,"x_min":3,"x_max":708,"o":"m 602 812 l 602 829 q 585 909 602 887 q 541 930 568 930 q 483 883 501 930 q 444 609 464 836 l 503 609 q 602 617 557 609 l 609 602 q 572 531 590 572 q 437 538 521 538 q 388 77 426 397 q 363 -55 378 -2 q 301 -189 340 -136 q 219 -267 263 -243 q 127 -292 174 -292 q 3 -250 58 -292 q 64 -138 37 -195 l 87 -138 q 123 -202 98 -178 q 160 -218 140 -218 q 192 -207 178 -218 q 212 -165 205 -195 q 230 64 218 -136 q 267 538 239 230 q 170 534 220 538 l 182 587 q 273 617 233 600 q 295 777 289 749 q 343 881 307 830 q 439 960 380 931 q 560 988 498 988 q 640 978 603 988 q 708 949 677 968 q 659 806 671 866 l 602 812 z "},"≈":{"ha":926,"x_min":90,"x_max":836,"o":"m 793 743 l 836 743 q 780 572 834 633 q 646 511 725 511 q 566 523 608 511 q 390 591 524 534 q 250 632 294 632 q 175 605 205 632 q 134 511 146 577 l 90 511 q 144 684 96 625 q 275 744 193 744 q 349 734 313 744 q 534 664 417 715 q 632 627 600 636 q 676 622 652 622 q 754 653 722 622 q 793 743 786 684 m 793 398 l 836 398 q 780 227 834 288 q 646 165 725 165 q 566 177 608 165 q 390 245 524 189 q 250 286 294 286 q 175 259 205 286 q 134 166 145 231 l 90 166 q 144 339 96 279 q 274 399 193 399 q 349 389 313 399 q 534 319 416 370 q 632 281 600 290 q 676 276 652 276 q 754 307 722 276 q 793 398 786 338 z "},"∆":{"ha":854,"x_min":20,"x_max":833,"o":"m 833 0 l 20 0 l 446 941 l 833 0 m 673 56 l 403 711 l 104 56 l 673 56 z "},"«":{"ha":652,"x_min":39,"x_max":614,"o":"m 272 566 l 341 566 l 218 312 l 341 60 l 272 60 q 39 312 249 87 q 272 566 208 491 m 545 566 l 614 566 l 494 312 l 614 60 l 545 60 l 415 203 q 311 312 389 233 q 545 566 374 376 z "},"»":{"ha":652,"x_min":37,"x_max":612,"o":"m 379 60 l 310 60 l 432 313 l 310 566 l 379 566 q 612 313 401 539 q 379 60 443 135 m 106 60 l 37 60 l 157 313 l 37 566 l 106 566 l 235 422 q 339 313 262 393 q 106 60 276 249 z "},"…":{"ha":1389,"x_min":109,"x_max":1279,"o":"m 694 221 q 781 185 745 221 q 816 99 816 150 q 780 13 816 49 q 694 -23 745 -23 q 608 13 644 -23 q 572 99 572 49 q 608 185 572 150 q 694 221 643 221 m 1157 221 q 1243 185 1208 221 q 1279 99 1279 150 q 1243 13 1279 49 q 1157 -23 1208 -23 q 1071 13 1107 -23 q 1035 99 1035 49 q 1070 185 1035 150 q 1157 221 1106 221 m 231 221 q 318 185 282 221 q 353 99 353 150 q 317 13 353 49 q 231 -23 281 -23 q 145 13 180 -23 q 109 99 109 49 q 145 185 109 150 q 231 221 180 221 z "}," ":{"ha":354,"x_min":0,"x_max":0,"o":""},"À":{"ha":1084,"x_min":2,"x_max":1082,"o":"m 605 -7 l 605 43 q 700 67 687 58 q 713 93 713 77 q 709 115 713 102 q 638 286 698 143 q 479 288 543 288 q 304 286 427 288 q 229 91 229 108 q 240 67 229 75 q 336 43 251 59 l 336 -7 q 173 0 251 0 q 2 -7 89 0 l 2 43 q 86 72 63 56 q 115 104 102 83 q 273 435 141 147 q 511 975 356 618 l 566 975 q 827 380 629 816 q 958 105 937 138 q 988 73 973 82 q 1082 43 1003 63 l 1082 -7 q 859 0 962 0 q 605 -7 758 0 m 475 683 l 336 363 l 471 363 q 609 363 519 363 l 475 683 m 635 1021 l 575 1021 q 372 1242 463 1152 l 383 1258 q 465 1255 432 1255 q 557 1258 490 1255 q 585 1166 574 1198 l 635 1021 z "},"Ã":{"ha":1084,"x_min":2,"x_max":1082,"o":"m 605 -7 l 605 43 q 700 67 687 58 q 713 93 713 77 q 709 115 713 102 q 638 286 698 143 q 479 288 543 288 q 304 286 427 288 q 229 91 229 108 q 240 67 229 75 q 336 43 251 59 l 336 -7 q 173 0 251 0 q 2 -7 89 0 l 2 43 q 86 72 63 56 q 115 104 102 83 q 273 435 141 147 q 511 975 356 618 l 566 975 q 827 380 629 816 q 958 105 937 138 q 988 73 973 82 q 1082 43 1003 63 l 1082 -7 q 859 0 962 0 q 605 -7 758 0 m 475 683 l 336 363 l 471 363 q 609 363 519 363 l 475 683 m 720 1224 l 780 1224 q 715 1079 757 1122 q 644 1047 685 1047 q 529 1079 611 1047 q 426 1112 448 1112 q 396 1099 410 1112 q 366 1047 381 1086 l 306 1047 q 370 1191 328 1145 q 439 1224 401 1224 q 480 1219 458 1224 q 570 1186 502 1213 q 664 1158 638 1158 q 692 1169 680 1158 q 720 1224 705 1180 z "},"Õ":{"ha":1129,"x_min":59,"x_max":1069,"o":"m 59 458 q 202 833 59 691 q 585 975 345 975 q 940 847 811 975 q 1069 505 1069 720 q 1019 257 1069 369 q 915 107 979 168 q 785 16 852 46 q 547 -28 686 -28 q 187 100 315 -28 q 59 458 59 229 m 294 495 q 383 132 294 248 q 574 45 450 45 q 718 90 659 45 q 806 231 777 134 q 835 457 835 328 q 817 646 835 555 q 769 787 800 736 q 687 869 739 838 q 564 900 636 900 q 420 855 483 900 q 325 713 357 810 q 294 495 294 616 m 741 1224 l 802 1224 q 737 1079 779 1122 q 666 1047 707 1047 q 551 1079 633 1047 q 448 1112 469 1112 q 417 1099 432 1112 q 387 1047 403 1086 l 328 1047 q 392 1191 349 1145 q 460 1224 423 1224 q 502 1219 480 1224 q 592 1186 524 1213 q 686 1158 660 1158 q 714 1169 702 1158 q 741 1224 726 1180 z "},"Œ":{"ha":1520,"x_min":57,"x_max":1495,"o":"m 1431 709 l 1375 709 q 1330 829 1343 803 q 1299 863 1316 854 q 1227 871 1281 871 l 970 871 q 965 534 966 815 l 1082 534 q 1186 547 1166 534 q 1232 645 1214 564 q 1238 671 1234 654 l 1295 671 q 1288 483 1288 572 q 1295 317 1288 399 l 1238 317 q 1232 344 1234 334 q 1198 444 1216 429 q 1079 458 1179 458 l 965 458 l 965 79 l 1231 79 q 1316 96 1291 79 q 1417 233 1341 114 q 1436 261 1423 243 l 1495 261 q 1407 -7 1442 113 q 1015 0 1226 0 l 598 -7 q 371 17 460 -7 q 249 73 311 33 q 145 172 186 113 q 80 309 104 230 q 57 476 57 388 q 234 852 57 718 q 587 955 368 955 q 690 952 600 955 q 935 947 842 947 q 1415 955 1077 947 q 1431 709 1417 823 m 758 663 q 755 824 758 809 q 727 861 749 848 q 615 882 689 882 q 372 783 463 882 q 282 483 282 685 q 325 258 282 355 q 448 113 368 160 q 650 66 528 66 q 750 110 738 66 q 758 490 759 141 l 758 663 z "},"œ":{"ha":1100,"x_min":50,"x_max":1064,"o":"m 1027 177 l 1064 124 q 878 0 931 24 q 766 -24 825 -24 q 659 -1 704 -24 q 589 61 625 16 q 507 0 548 18 q 373 -24 452 -24 q 135 66 220 -24 q 50 318 50 155 q 141 572 50 479 q 391 665 233 665 q 523 639 471 665 q 604 565 562 620 q 695 640 645 616 q 823 665 746 665 q 966 629 912 665 q 1038 548 1020 594 q 1059 427 1056 502 q 999 377 1027 407 q 819 379 933 379 q 677 377 732 379 q 696 225 677 283 q 753 139 715 168 q 846 110 790 110 q 925 123 887 110 q 1027 177 962 136 m 251 358 q 307 92 251 178 q 394 43 338 43 q 484 100 454 43 q 513 284 513 156 q 463 549 513 471 q 376 596 432 596 q 293 555 322 596 q 251 358 251 496 m 880 450 q 852 561 878 530 q 785 592 827 592 q 713 559 742 592 q 675 446 684 527 q 880 450 812 446 z "},"–":{"ha":694,"x_min":-8,"x_max":703,"o":"m -8 391 l 703 391 l 703 303 l -8 303 l -8 391 z "},"—":{"ha":1389,"x_min":-8,"x_max":1397,"o":"m -8 391 l 1397 391 l 1397 303 l -8 303 l -8 391 z "},"“":{"ha":839,"x_min":113,"x_max":736,"o":"m 707 631 l 736 595 q 695 544 724 578 q 613 436 652 491 q 512 503 550 454 q 474 615 474 552 q 527 786 474 693 q 686 975 579 879 l 736 926 q 636 775 661 826 q 619 703 619 741 q 638 647 619 667 q 680 626 656 626 q 707 631 690 626 m 346 631 l 375 595 q 334 544 363 578 q 252 436 292 491 q 151 503 189 454 q 113 615 113 552 q 166 786 113 693 q 326 975 218 879 l 375 926 q 275 775 300 826 q 258 703 258 741 q 277 647 258 667 q 319 626 296 626 q 346 631 330 626 z "},"”":{"ha":839,"x_min":103,"x_max":726,"o":"m 132 781 l 103 817 q 144 867 116 833 q 226 975 186 920 q 327 908 290 957 q 365 796 365 859 q 313 625 365 718 q 153 436 260 532 l 103 486 q 203 636 178 585 q 220 709 220 670 q 201 765 220 744 q 159 785 182 785 q 132 781 149 785 m 493 781 l 464 817 q 505 867 477 833 q 587 975 547 920 q 688 908 650 957 q 726 796 726 859 q 673 625 726 718 q 513 436 621 532 l 464 486 q 564 636 539 585 q 581 709 581 670 q 562 765 581 744 q 519 785 543 785 q 493 781 510 785 z "},"‘":{"ha":478,"x_min":113,"x_max":375,"o":"m 346 631 l 375 595 q 334 544 363 578 q 252 436 292 491 q 151 503 189 454 q 113 615 113 552 q 166 786 113 693 q 326 975 218 879 l 375 926 q 275 775 300 826 q 258 703 258 741 q 277 647 258 667 q 319 626 296 626 q 346 631 330 626 z "},"’":{"ha":478,"x_min":102,"x_max":364,"o":"m 132 781 l 102 817 q 143 867 115 833 q 225 975 186 920 q 327 908 289 957 q 364 796 364 859 q 312 625 364 718 q 152 436 260 532 l 102 486 q 203 636 178 585 q 219 709 219 670 q 200 765 219 744 q 158 785 182 785 q 132 781 149 785 z "},"÷":{"ha":926,"x_min":88,"x_max":838,"o":"m 536 739 q 514 686 536 708 q 460 663 492 663 q 407 686 429 663 q 385 739 385 708 q 407 793 385 771 q 460 815 429 815 q 514 793 492 815 q 536 739 536 771 m 88 515 l 838 515 l 838 395 l 88 395 l 88 515 m 538 176 q 516 122 538 144 q 461 100 493 100 q 407 122 430 100 q 385 176 385 144 q 407 231 385 208 q 461 253 430 253 q 516 231 493 253 q 538 176 538 208 z "},"◊":{"ha":686,"x_min":32,"x_max":656,"o":"m 372 964 l 656 481 l 372 0 l 297 0 l 32 481 l 297 964 l 372 964 m 336 899 l 105 481 l 336 64 l 579 481 l 336 899 z "},"ÿ":{"ha":694,"x_min":1,"x_max":692,"o":"m 1 594 l 1 642 q 191 634 124 634 q 376 642 261 634 l 376 594 q 359 591 365 592 q 309 577 318 585 q 299 557 299 569 q 313 512 299 547 l 415 258 l 496 497 q 509 555 509 536 q 500 575 509 566 q 454 594 491 583 l 454 642 q 581 634 531 634 q 692 642 634 634 l 692 594 q 626 566 641 578 q 594 516 611 553 q 491 243 578 479 q 349 -123 382 -56 q 250 -255 303 -218 q 140 -292 196 -292 q 79 -284 118 -292 q 55 -206 64 -231 q 22 -134 45 -181 l 60 -110 q 119 -153 95 -142 q 168 -163 142 -163 q 249 -131 212 -163 q 327 20 285 -98 l 134 457 q 79 556 98 540 q 1 594 61 573 m 469 935 q 532 909 506 935 q 557 847 557 884 q 532 784 557 810 q 469 758 506 758 q 406 784 432 758 q 380 847 380 810 q 406 909 380 884 q 469 935 432 935 m 225 935 q 288 909 262 935 q 314 846 314 883 q 288 784 314 810 q 225 758 262 758 q 163 784 189 758 q 137 846 137 810 q 163 909 137 883 q 225 935 189 935 z "},"Ÿ":{"ha":1042,"x_min":1,"x_max":1044,"o":"m 1 905 l 1 955 l 134 950 q 243 947 225 947 q 486 955 309 947 l 486 905 q 397 878 409 887 q 385 859 385 869 q 395 831 385 848 q 475 691 420 791 q 586 500 531 591 l 777 848 q 783 867 783 861 q 773 883 783 876 q 683 905 764 890 l 683 955 l 716 953 q 867 947 829 947 q 1044 955 909 947 l 1044 905 q 929 870 956 888 q 871 808 901 853 q 627 409 851 779 l 627 165 q 634 92 628 106 q 659 68 641 77 q 757 47 671 63 l 779 43 l 779 -7 q 527 0 595 0 q 267 -7 478 0 l 267 43 q 299 48 288 47 q 393 71 372 59 q 413 95 406 78 q 419 195 419 113 l 419 395 q 286 608 374 465 q 147 825 171 793 q 96 874 123 858 q 1 905 70 890 m 643 1225 q 705 1200 680 1225 q 731 1137 731 1174 q 705 1075 731 1101 q 643 1048 680 1048 q 580 1075 606 1048 q 554 1137 554 1101 q 580 1200 554 1174 q 643 1225 606 1225 m 399 1225 q 462 1199 436 1225 q 488 1137 488 1173 q 461 1074 488 1100 q 399 1048 435 1048 q 336 1074 362 1048 q 311 1137 311 1100 q 336 1199 311 1173 q 399 1225 362 1225 z "},"∕":{"ha":160,"x_min":-244,"x_max":404,"o":"m 302 970 l 404 970 l -142 -55 l -244 -55 l 302 970 z "},"€":{"ha":708,"x_min":0,"x_max":635,"o":"m 65 367 l 0 367 l 8 441 l 61 441 l 61 452 q 62 504 61 479 l 0 504 l 8 579 l 71 579 q 433 970 132 970 q 624 921 519 970 q 627 663 618 800 l 557 663 q 519 833 546 778 q 437 889 493 889 q 271 579 296 889 l 576 579 l 568 504 l 268 504 q 269 441 268 486 l 559 441 l 551 367 l 277 367 q 472 98 315 98 q 599 144 530 98 l 635 85 q 380 -24 505 -24 q 65 367 106 -24 z "},"‹":{"ha":376,"x_min":38,"x_max":340,"o":"m 272 566 l 340 566 l 220 312 l 340 60 l 272 60 l 142 203 q 38 312 115 233 q 272 566 101 376 z "},"›":{"ha":376,"x_min":36,"x_max":338,"o":"m 105 60 l 36 60 l 157 313 l 36 566 l 105 566 l 235 422 q 338 313 262 393 q 105 60 275 249 z "},"":{"ha":810,"x_min":15,"x_max":798,"o":"m 576 755 l 519 760 q 487 879 514 846 q 416 911 459 911 q 321 853 355 911 q 296 688 296 811 l 296 633 l 475 633 q 611 641 569 633 q 679 666 640 646 l 711 646 q 698 478 703 576 q 694 253 694 380 q 699 96 694 126 q 714 68 703 77 q 798 40 726 59 l 798 -7 q 601 0 690 0 q 424 -7 511 0 l 424 40 q 502 74 492 56 q 517 285 517 101 q 513 514 517 479 q 497 548 509 539 q 424 557 484 557 l 296 557 l 296 208 q 304 78 296 94 q 367 45 315 56 q 391 40 374 43 l 391 -7 q 223 1 273 1 q 115 -3 208 1 l 15 -7 l 15 40 q 95 66 85 58 q 110 96 106 74 q 118 281 118 141 l 118 557 q 21 550 67 555 l 21 598 q 118 646 72 618 q 117 693 117 681 q 150 847 117 790 q 264 947 182 904 q 447 989 347 989 q 633 943 548 989 q 576 755 617 902 z "},"":{"ha":810,"x_min":14,"x_max":793,"o":"m 19 553 l 19 600 q 119 644 70 618 q 130 774 120 732 q 183 881 143 833 q 295 959 222 929 q 435 989 367 989 q 522 977 481 989 q 615 937 563 965 q 675 989 648 960 l 708 969 q 696 766 700 881 q 692 357 692 652 q 693 117 692 139 q 706 72 695 83 q 772 46 718 60 q 793 40 779 44 l 793 -7 q 612 0 684 0 q 425 -7 537 0 l 425 40 q 494 66 481 54 q 510 113 507 78 q 518 332 518 197 l 518 446 l 520 684 q 512 828 520 797 q 471 894 502 869 q 404 918 441 918 q 337 895 362 918 q 304 811 313 871 q 299 635 299 772 q 380 634 368 634 q 475 642 430 634 l 484 627 q 444 548 463 589 q 299 559 370 557 l 299 187 q 304 75 299 85 q 367 45 314 56 q 388 40 374 43 l 388 -7 q 204 0 269 0 q 14 -7 141 0 l 14 40 q 96 66 85 58 q 111 96 107 75 q 119 302 119 144 l 118 559 q 19 553 66 559 z "},"‡":{"ha":623,"x_min":44,"x_max":576,"o":"m 186 989 l 435 989 q 344 709 380 841 q 576 788 453 742 l 576 566 q 344 643 455 612 l 380 503 l 427 349 q 344 52 387 214 q 576 130 464 85 l 576 -92 q 344 -14 455 -45 q 380 -135 370 -104 l 435 -291 l 186 -291 q 278 -14 260 -87 q 44 -92 173 -45 l 44 130 q 278 52 171 80 l 250 159 l 193 349 q 278 643 255 547 q 44 566 222 628 l 44 788 q 278 709 196 734 q 186 989 255 802 z "},"∙":{"ha":478,"x_min":116,"x_max":361,"o":"m 239 596 q 326 560 290 596 q 361 473 361 524 q 326 387 361 422 q 239 351 290 351 q 152 387 188 351 q 116 473 116 422 q 152 560 116 524 q 239 596 187 596 z "},"‚":{"ha":478,"x_min":102,"x_max":364,"o":"m 132 29 l 102 65 q 143 116 115 81 q 225 224 186 169 q 327 157 289 205 q 364 45 364 108 q 312 -126 364 -33 q 152 -315 260 -219 l 102 -266 q 203 -115 178 -166 q 219 -43 219 -81 q 200 13 219 -7 q 158 34 182 34 q 132 29 149 34 z "},"„":{"ha":839,"x_min":103,"x_max":726,"o":"m 132 29 l 103 65 q 144 116 116 81 q 226 224 186 169 q 327 157 290 205 q 365 45 365 108 q 313 -126 365 -33 q 153 -315 260 -219 l 103 -266 q 203 -115 178 -166 q 220 -43 220 -81 q 201 13 220 -7 q 159 34 182 34 q 132 29 149 34 m 493 29 l 464 65 q 505 116 477 81 q 587 224 547 169 q 688 157 650 205 q 726 45 726 108 q 673 -126 726 -33 q 513 -315 621 -219 l 464 -266 q 564 -115 539 -166 q 581 -43 581 -81 q 562 13 581 -7 q 519 34 543 34 q 493 29 510 34 z "},"‰":{"ha":1520,"x_min":44,"x_max":1476,"o":"m 44 687 q 104 901 44 831 q 258 970 164 970 q 398 910 347 970 q 450 713 450 849 q 391 509 450 576 q 237 442 331 442 q 96 500 147 442 q 44 687 44 557 m 178 690 q 199 527 178 560 q 248 494 220 494 q 292 523 275 494 q 317 726 317 568 q 292 888 317 847 q 248 916 275 916 q 197 877 212 916 q 178 690 183 838 m 732 970 l 833 970 l 287 -55 l 185 -55 l 732 970 m 568 207 q 630 406 568 337 q 785 474 691 474 q 924 413 872 474 q 975 223 975 353 q 916 14 975 82 q 762 -55 857 -55 q 620 6 672 -55 q 568 207 568 67 m 704 204 q 728 24 704 67 q 772 -1 743 -1 q 814 24 802 -1 q 840 232 840 71 q 816 395 840 353 q 772 419 801 419 q 731 394 745 419 q 704 204 704 345 m 1069 207 q 1131 406 1069 337 q 1286 474 1192 474 q 1424 413 1373 474 q 1476 223 1476 353 q 1417 14 1476 82 q 1263 -55 1358 -55 q 1121 6 1173 -55 q 1069 207 1069 67 m 1204 204 q 1230 24 1204 67 q 1272 -1 1243 -1 q 1316 24 1303 -1 q 1341 232 1341 71 q 1316 395 1341 353 q 1272 419 1301 419 q 1232 394 1246 419 q 1204 204 1204 345 z "},"Â":{"ha":1084,"x_min":2,"x_max":1082,"o":"m 605 -7 l 605 43 q 700 67 687 58 q 713 93 713 77 q 709 115 713 102 q 638 286 698 143 q 479 288 543 288 q 304 286 427 288 q 229 91 229 108 q 240 67 229 75 q 336 43 251 59 l 336 -7 q 173 0 251 0 q 2 -7 89 0 l 2 43 q 86 72 63 56 q 115 104 102 83 q 273 435 141 147 q 511 975 356 618 l 566 975 q 827 380 629 816 q 958 105 937 138 q 988 73 973 82 q 1082 43 1003 63 l 1082 -7 q 859 0 962 0 q 605 -7 758 0 m 475 683 l 336 363 l 471 363 q 609 363 519 363 l 475 683 m 757 1030 l 686 1030 q 536 1143 622 1082 q 396 1030 435 1064 l 328 1030 q 470 1247 414 1158 l 545 1246 q 623 1247 571 1246 q 757 1030 653 1188 z "},"Ê":{"ha":926,"x_min":11,"x_max":899,"o":"m 11 905 l 11 955 q 366 947 174 947 q 825 955 589 947 q 842 707 827 812 l 784 707 q 772 741 776 729 q 720 853 739 838 q 635 869 701 869 l 376 869 q 369 536 370 754 l 487 534 q 601 552 579 534 q 646 673 622 570 l 702 673 q 694 498 694 574 q 702 317 694 425 l 646 317 q 609 443 627 427 q 503 459 591 459 l 370 459 l 370 80 l 640 80 q 699 85 684 80 q 743 117 723 94 q 840 260 784 162 l 899 260 q 814 -7 860 149 q 331 0 583 0 q 11 -7 216 0 l 11 43 q 140 75 123 63 q 162 154 162 91 l 162 177 l 163 446 l 163 663 l 163 763 q 155 853 163 836 q 126 881 148 871 q 11 905 105 891 m 677 1030 l 606 1030 q 456 1143 542 1082 q 316 1030 355 1064 l 248 1030 q 390 1247 334 1158 l 465 1246 q 543 1247 491 1246 q 677 1030 573 1188 z "},"Á":{"ha":1084,"x_min":2,"x_max":1082,"o":"m 605 -7 l 605 43 q 700 67 687 58 q 713 93 713 77 q 709 115 713 102 q 638 286 698 143 q 479 288 543 288 q 304 286 427 288 q 229 91 229 108 q 240 67 229 75 q 336 43 251 59 l 336 -7 q 173 0 251 0 q 2 -7 89 0 l 2 43 q 86 72 63 56 q 115 104 102 83 q 273 435 141 147 q 511 975 356 618 l 566 975 q 827 380 629 816 q 958 105 937 138 q 988 73 973 82 q 1082 43 1003 63 l 1082 -7 q 859 0 962 0 q 605 -7 758 0 m 475 683 l 336 363 l 471 363 q 609 363 519 363 l 475 683 m 709 1256 l 718 1238 q 513 1021 616 1139 l 454 1021 l 534 1256 q 625 1253 602 1253 q 709 1256 650 1253 z "},"Ë":{"ha":926,"x_min":11,"x_max":899,"o":"m 11 905 l 11 955 q 366 947 174 947 q 825 955 589 947 q 842 707 827 812 l 784 707 q 772 741 776 729 q 720 853 739 838 q 635 869 701 869 l 376 869 q 369 536 370 754 l 487 534 q 601 552 579 534 q 646 673 622 570 l 702 673 q 694 498 694 574 q 702 317 694 425 l 646 317 q 609 443 627 427 q 503 459 591 459 l 370 459 l 370 80 l 640 80 q 699 85 684 80 q 743 117 723 94 q 840 260 784 162 l 899 260 q 814 -7 860 149 q 331 0 583 0 q 11 -7 216 0 l 11 43 q 140 75 123 63 q 162 154 162 91 l 162 177 l 163 446 l 163 663 l 163 763 q 155 853 163 836 q 126 881 148 871 q 11 905 105 891 m 585 1225 q 647 1200 621 1225 q 673 1137 673 1174 q 647 1075 673 1101 q 585 1048 621 1048 q 522 1075 547 1048 q 496 1137 496 1101 q 522 1200 496 1174 q 585 1225 547 1225 m 340 1225 q 404 1199 378 1225 q 429 1137 429 1173 q 403 1074 429 1100 q 340 1048 377 1048 q 278 1074 304 1048 q 252 1137 252 1100 q 278 1199 252 1173 q 340 1225 304 1225 z "},"È":{"ha":926,"x_min":11,"x_max":899,"o":"m 11 905 l 11 955 q 366 947 174 947 q 825 955 589 947 q 842 707 827 812 l 784 707 q 772 741 776 729 q 720 853 739 838 q 635 869 701 869 l 376 869 q 369 536 370 754 l 487 534 q 601 552 579 534 q 646 673 622 570 l 702 673 q 694 498 694 574 q 702 317 694 425 l 646 317 q 609 443 627 427 q 503 459 591 459 l 370 459 l 370 80 l 640 80 q 699 85 684 80 q 743 117 723 94 q 840 260 784 162 l 899 260 q 814 -7 860 149 q 331 0 583 0 q 11 -7 216 0 l 11 43 q 140 75 123 63 q 162 154 162 91 l 162 177 l 163 446 l 163 663 l 163 763 q 155 853 163 836 q 126 881 148 871 q 11 905 105 891 m 555 1021 l 495 1021 q 292 1242 382 1152 l 303 1258 q 385 1255 352 1255 q 477 1258 410 1255 q 505 1166 494 1198 l 555 1021 z "},"Í":{"ha":534,"x_min":14,"x_max":524,"o":"m 524 955 l 524 905 l 499 901 q 391 874 409 890 q 373 811 373 858 l 373 787 l 372 559 l 372 300 l 373 168 q 379 94 373 109 q 399 72 385 79 q 499 47 423 59 q 524 43 507 45 l 524 -7 q 279 0 385 0 q 14 -7 179 0 l 14 43 q 130 66 119 62 q 153 84 145 73 q 164 148 163 100 q 165 531 165 260 l 163 778 l 163 798 q 148 868 163 852 q 43 899 132 884 q 14 905 33 901 l 14 955 q 275 947 188 947 q 524 955 368 947 m 434 1256 l 443 1238 q 238 1021 340 1139 l 178 1021 l 259 1256 q 349 1253 327 1253 q 434 1256 374 1253 z "},"Î":{"ha":534,"x_min":14,"x_max":524,"o":"m 524 955 l 524 905 l 499 901 q 391 874 409 890 q 373 811 373 858 l 373 787 l 372 559 l 372 300 l 373 168 q 379 94 373 109 q 399 72 385 79 q 499 47 423 59 q 524 43 507 45 l 524 -7 q 279 0 385 0 q 14 -7 179 0 l 14 43 q 130 66 119 62 q 153 84 145 73 q 164 148 163 100 q 165 531 165 260 l 163 778 l 163 798 q 148 868 163 852 q 43 899 132 884 q 14 905 33 901 l 14 955 q 275 947 188 947 q 524 955 368 947 m 481 1030 l 411 1030 q 261 1143 347 1082 q 121 1030 160 1064 l 53 1030 q 195 1247 139 1158 l 270 1246 q 347 1247 296 1246 q 481 1030 378 1188 z "},"Ï":{"ha":534,"x_min":14,"x_max":524,"o":"m 524 955 l 524 905 l 499 901 q 391 874 409 890 q 373 811 373 858 l 373 787 l 372 559 l 372 300 l 373 168 q 379 94 373 109 q 399 72 385 79 q 499 47 423 59 q 524 43 507 45 l 524 -7 q 279 0 385 0 q 14 -7 179 0 l 14 43 q 130 66 119 62 q 153 84 145 73 q 164 148 163 100 q 165 531 165 260 l 163 778 l 163 798 q 148 868 163 852 q 43 899 132 884 q 14 905 33 901 l 14 955 q 275 947 188 947 q 524 955 368 947 m 389 1225 q 452 1200 426 1225 q 477 1137 477 1174 q 452 1075 477 1101 q 389 1048 426 1048 q 326 1075 352 1048 q 300 1137 300 1101 q 326 1200 300 1174 q 389 1225 352 1225 m 145 1225 q 208 1199 182 1225 q 234 1137 234 1173 q 208 1074 234 1100 q 145 1048 182 1048 q 83 1074 109 1048 q 57 1137 57 1100 q 83 1199 57 1173 q 145 1225 109 1225 z "},"Ì":{"ha":534,"x_min":14,"x_max":524,"o":"m 524 955 l 524 905 l 499 901 q 391 874 409 890 q 373 811 373 858 l 373 787 l 372 559 l 372 300 l 373 168 q 379 94 373 109 q 399 72 385 79 q 499 47 423 59 q 524 43 507 45 l 524 -7 q 279 0 385 0 q 14 -7 179 0 l 14 43 q 130 66 119 62 q 153 84 145 73 q 164 148 163 100 q 165 531 165 260 l 163 778 l 163 798 q 148 868 163 852 q 43 899 132 884 q 14 905 33 901 l 14 955 q 275 947 188 947 q 524 955 368 947 m 359 1021 l 300 1021 q 97 1242 187 1152 l 108 1258 q 189 1255 157 1255 q 281 1258 214 1255 q 310 1166 299 1198 l 359 1021 z "},"Ó":{"ha":1129,"x_min":59,"x_max":1069,"o":"m 59 458 q 202 833 59 691 q 585 975 345 975 q 940 847 811 975 q 1069 505 1069 720 q 1019 257 1069 369 q 915 107 979 168 q 785 16 852 46 q 547 -28 686 -28 q 187 100 315 -28 q 59 458 59 229 m 294 495 q 383 132 294 248 q 574 45 450 45 q 718 90 659 45 q 806 231 777 134 q 835 457 835 328 q 817 646 835 555 q 769 787 800 736 q 687 869 739 838 q 564 900 636 900 q 420 855 483 900 q 325 713 357 810 q 294 495 294 616 m 731 1256 l 740 1238 q 535 1021 637 1139 l 475 1021 l 556 1256 q 646 1253 624 1253 q 731 1256 671 1253 z "},"Ô":{"ha":1129,"x_min":59,"x_max":1069,"o":"m 59 458 q 202 833 59 691 q 585 975 345 975 q 940 847 811 975 q 1069 505 1069 720 q 1019 257 1069 369 q 915 107 979 168 q 785 16 852 46 q 547 -28 686 -28 q 187 100 315 -28 q 59 458 59 229 m 294 495 q 383 132 294 248 q 574 45 450 45 q 718 90 659 45 q 806 231 777 134 q 835 457 835 328 q 817 646 835 555 q 769 787 800 736 q 687 869 739 838 q 564 900 636 900 q 420 855 483 900 q 325 713 357 810 q 294 495 294 616 m 779 1030 l 708 1030 q 558 1143 644 1082 q 418 1030 457 1064 l 350 1030 q 492 1247 436 1158 l 567 1246 q 644 1247 593 1246 q 779 1030 675 1188 z "},"Ò":{"ha":1129,"x_min":59,"x_max":1069,"o":"m 59 458 q 202 833 59 691 q 585 975 345 975 q 940 847 811 975 q 1069 505 1069 720 q 1019 257 1069 369 q 915 107 979 168 q 785 16 852 46 q 547 -28 686 -28 q 187 100 315 -28 q 59 458 59 229 m 294 495 q 383 132 294 248 q 574 45 450 45 q 718 90 659 45 q 806 231 777 134 q 835 457 835 328 q 817 646 835 555 q 769 787 800 736 q 687 869 739 838 q 564 900 636 900 q 420 855 483 900 q 325 713 357 810 q 294 495 294 616 m 656 1021 l 597 1021 q 394 1242 484 1152 l 405 1258 q 486 1255 454 1255 q 578 1258 511 1255 q 607 1166 596 1198 l 656 1021 z "},"Ú":{"ha":1100,"x_min":7,"x_max":1097,"o":"m 7 905 l 7 955 q 262 947 166 947 q 513 955 357 947 l 513 905 q 389 877 414 888 q 367 857 372 870 q 360 768 360 840 l 360 420 q 375 238 360 286 q 448 136 394 174 q 602 97 503 97 q 766 141 711 97 q 838 258 822 186 q 854 507 854 331 q 848 736 854 548 q 838 859 845 841 q 824 876 834 870 q 736 899 811 885 q 709 905 727 901 l 709 955 q 912 947 852 947 q 1097 955 983 947 l 1097 905 q 977 874 994 886 q 958 840 961 863 q 949 495 951 802 q 941 264 948 319 q 904 141 929 189 q 829 54 878 94 q 720 -4 780 14 q 552 -28 642 -28 q 312 16 401 -28 q 188 131 223 60 q 153 338 153 201 l 153 757 q 145 859 153 838 q 124 879 139 872 q 7 905 109 886 m 716 1256 l 725 1238 q 520 1021 623 1139 l 460 1021 l 541 1256 q 631 1253 609 1253 q 716 1256 656 1253 z "},"Û":{"ha":1100,"x_min":7,"x_max":1097,"o":"m 7 905 l 7 955 q 262 947 166 947 q 513 955 357 947 l 513 905 q 389 877 414 888 q 367 857 372 870 q 360 768 360 840 l 360 420 q 375 238 360 286 q 448 136 394 174 q 602 97 503 97 q 766 141 711 97 q 838 258 822 186 q 854 507 854 331 q 848 736 854 548 q 838 859 845 841 q 824 876 834 870 q 736 899 811 885 q 709 905 727 901 l 709 955 q 912 947 852 947 q 1097 955 983 947 l 1097 905 q 977 874 994 886 q 958 840 961 863 q 949 495 951 802 q 941 264 948 319 q 904 141 929 189 q 829 54 878 94 q 720 -4 780 14 q 552 -28 642 -28 q 312 16 401 -28 q 188 131 223 60 q 153 338 153 201 l 153 757 q 145 859 153 838 q 124 879 139 872 q 7 905 109 886 m 764 1030 l 693 1030 q 543 1143 629 1082 q 403 1030 442 1064 l 335 1030 q 477 1247 421 1158 l 552 1246 q 629 1247 578 1246 q 764 1030 660 1188 z "},"Ù":{"ha":1100,"x_min":7,"x_max":1097,"o":"m 7 905 l 7 955 q 262 947 166 947 q 513 955 357 947 l 513 905 q 389 877 414 888 q 367 857 372 870 q 360 768 360 840 l 360 420 q 375 238 360 286 q 448 136 394 174 q 602 97 503 97 q 766 141 711 97 q 838 258 822 186 q 854 507 854 331 q 848 736 854 548 q 838 859 845 841 q 824 876 834 870 q 736 899 811 885 q 709 905 727 901 l 709 955 q 912 947 852 947 q 1097 955 983 947 l 1097 905 q 977 874 994 886 q 958 840 961 863 q 949 495 951 802 q 941 264 948 319 q 904 141 929 189 q 829 54 878 94 q 720 -4 780 14 q 552 -28 642 -28 q 312 16 401 -28 q 188 131 223 60 q 153 338 153 201 l 153 757 q 145 859 153 838 q 124 879 139 872 q 7 905 109 886 m 642 1021 l 582 1021 q 379 1242 469 1152 l 390 1258 q 471 1255 439 1255 q 564 1258 496 1255 q 592 1166 581 1198 l 642 1021 z "},"ı":{"ha":435,"x_min":24,"x_max":414,"o":"m 28 524 l 28 573 q 294 667 182 600 l 328 649 q 316 503 319 567 q 311 200 311 407 q 317 90 311 113 q 333 66 321 74 q 414 40 345 58 l 414 -7 q 242 0 320 0 q 24 -7 168 0 l 24 40 l 42 44 q 113 67 102 58 q 126 102 123 77 q 132 368 132 167 q 126 504 132 485 q 87 529 118 529 q 28 524 61 529 z "},"ˆ":{"ha":463,"x_min":17,"x_max":446,"o":"m 446 740 l 375 740 q 225 853 311 792 q 85 740 124 774 l 17 740 q 159 957 103 867 l 234 956 q 311 957 260 956 q 446 740 342 898 z "},"˜":{"ha":463,"x_min":-5,"x_max":469,"o":"m 408 934 l 469 934 q 404 789 446 832 q 333 757 374 757 q 218 789 300 757 q 115 821 136 821 q 84 809 99 821 q 54 757 70 796 l -5 757 q 59 901 16 855 q 127 934 90 934 q 169 928 147 934 q 259 896 191 923 q 353 868 327 868 q 381 879 369 868 q 408 934 393 890 z "},"ˉ":{"ha":463,"x_min":-16,"x_max":479,"o":"m -16 873 l 479 873 l 479 773 l -16 773 l -16 873 z "},"˘":{"ha":463,"x_min":24,"x_max":438,"o":"m 24 943 l 87 943 q 125 887 98 903 q 233 861 165 861 q 334 885 297 861 q 377 943 359 901 l 438 943 q 389 817 430 863 q 235 754 334 754 q 86 802 139 754 q 24 943 34 849 z "},"˙":{"ha":463,"x_min":128,"x_max":334,"o":"m 231 951 q 304 921 274 951 q 334 848 334 890 q 304 775 334 805 q 231 745 274 745 q 158 775 189 745 q 128 848 128 805 q 158 921 128 890 q 231 951 189 951 z "},"˚":{"ha":463,"x_min":85,"x_max":378,"o":"m 232 1002 q 335 960 292 1002 q 378 856 378 917 q 335 753 378 795 q 232 710 292 710 q 128 753 171 710 q 85 856 85 795 q 128 960 85 917 q 232 1002 171 1002 m 232 926 q 182 905 203 926 q 162 856 162 884 q 182 806 162 827 q 232 785 203 785 q 281 806 261 785 q 302 856 302 827 q 281 905 302 884 q 232 926 261 926 z "},"¸":{"ha":463,"x_min":28,"x_max":282,"o":"m 205 7 l 260 7 q 214 -63 240 -28 q 263 -84 243 -63 q 282 -137 282 -104 q 240 -221 282 -189 q 72 -263 184 -263 q 28 -262 57 -263 l 28 -212 q 140 -192 109 -212 q 161 -156 161 -178 q 155 -137 161 -144 q 137 -130 148 -130 q 114 -132 130 -130 l 104 -102 q 149 -63 133 -80 q 205 7 164 -47 z "},"˝":{"ha":463,"x_min":47,"x_max":518,"o":"m 110 730 l 47 730 q 127 968 98 867 q 206 966 202 966 q 288 968 233 966 l 295 949 q 110 730 207 850 m 333 730 l 271 730 q 351 968 321 867 q 429 966 425 966 q 511 968 456 966 l 518 949 q 333 730 430 850 z "},"˛":{"ha":463,"x_min":95,"x_max":422,"o":"m 195 9 l 279 9 q 216 -103 216 -45 q 236 -152 216 -133 q 291 -171 256 -171 q 397 -142 330 -171 l 422 -190 q 318 -246 361 -231 q 230 -262 275 -262 q 131 -230 166 -262 q 95 -151 95 -197 q 195 9 95 -68 z "},"ˇ":{"ha":463,"x_min":17,"x_max":446,"o":"m 378 957 l 446 957 q 302 738 367 842 l 229 740 q 152 738 203 740 q 17 957 119 802 l 87 957 q 237 843 142 913 q 378 957 269 870 z "},"Š":{"ha":766,"x_min":70,"x_max":720,"o":"m 678 680 l 610 680 q 543 854 588 810 q 419 899 497 899 q 310 862 349 899 q 271 770 271 826 q 307 679 271 720 q 478 576 343 637 q 667 448 613 515 q 720 278 720 379 q 628 64 720 156 q 332 -28 536 -28 q 193 -17 258 -28 q 71 14 144 -9 q 82 250 82 134 l 82 295 l 149 295 q 212 115 174 160 q 353 53 263 53 q 469 96 425 53 q 512 205 512 138 q 494 279 512 247 q 440 338 476 312 q 311 408 405 365 q 119 539 168 476 q 70 686 70 602 q 162 893 70 811 q 428 975 254 975 q 678 931 543 975 q 674 783 674 825 q 678 680 674 735 m 544 1247 l 612 1247 q 468 1028 532 1133 l 394 1030 q 317 1028 368 1030 q 182 1247 284 1092 l 253 1247 q 403 1133 308 1204 q 544 1247 434 1160 z "},"š":{"ha":564,"x_min":50,"x_max":521,"o":"m 59 217 l 120 217 q 179 84 138 123 q 274 44 220 44 q 339 66 315 44 q 363 120 363 88 q 340 176 363 149 q 219 260 316 203 q 89 362 121 316 q 56 465 56 408 q 123 607 56 549 q 315 665 190 665 q 500 624 406 665 q 481 454 492 587 l 422 456 q 373 570 408 536 q 294 603 339 603 q 236 584 256 603 q 215 534 215 564 q 233 486 215 507 q 345 407 258 456 q 488 300 454 345 q 521 195 521 256 q 458 45 521 113 q 243 -24 396 -24 q 50 7 155 -24 q 59 217 58 127 m 429 957 l 497 957 q 353 738 418 842 l 279 740 q 203 738 254 740 q 68 957 170 802 l 138 957 q 288 843 193 913 q 429 957 319 870 z "},"¦":{"ha":782,"x_min":328,"x_max":454,"o":"m 328 967 l 454 967 l 454 473 l 328 473 l 328 967 m 328 306 l 454 306 l 454 -188 l 328 -188 l 328 306 z "},"Ð":{"ha":1143,"x_min":16,"x_max":1086,"o":"m 170 459 l 16 459 l 16 536 l 170 536 l 168 743 q 161 852 166 839 q 144 874 157 866 q 45 899 131 883 l 16 905 l 16 955 q 277 947 174 947 q 495 951 356 947 q 664 955 596 955 q 866 922 791 955 q 1028 785 969 878 q 1086 544 1086 692 q 1010 252 1086 380 q 794 52 933 124 q 513 -8 678 -8 q 387 -4 497 -8 q 262 1 276 1 q 16 -7 215 1 l 16 43 l 45 48 q 149 77 134 64 q 166 116 164 91 q 170 459 169 142 m 374 459 q 380 83 377 201 q 518 69 463 69 q 753 161 674 69 q 854 504 854 279 q 765 796 854 696 q 538 878 692 878 q 380 865 473 878 q 374 536 376 790 l 673 536 l 673 459 l 374 459 z "},"ð":{"ha":766,"x_min":50,"x_max":718,"o":"m 202 713 l 171 776 l 298 845 q 202 928 268 878 l 237 989 q 393 892 314 949 l 568 989 l 602 928 l 454 845 q 647 626 576 751 q 718 359 718 501 q 645 98 718 198 q 376 -24 557 -24 q 129 72 208 -24 q 50 308 50 167 q 89 485 50 404 q 194 605 127 565 q 336 646 260 646 q 449 625 382 646 q 400 718 420 685 q 347 790 380 751 l 202 713 m 252 359 q 303 93 252 170 q 394 42 336 42 q 480 92 445 42 q 515 294 515 142 q 478 507 515 433 q 376 581 442 581 q 288 533 323 581 q 252 359 252 486 z "},"Ý":{"ha":1042,"x_min":1,"x_max":1044,"o":"m 1 905 l 1 955 l 134 950 q 243 947 225 947 q 486 955 309 947 l 486 905 q 397 878 409 887 q 385 859 385 869 q 395 831 385 848 q 475 691 420 791 q 586 500 531 591 l 777 848 q 783 867 783 861 q 773 883 783 876 q 683 905 764 890 l 683 955 l 716 953 q 867 947 829 947 q 1044 955 909 947 l 1044 905 q 929 870 956 888 q 871 808 901 853 q 627 409 851 779 l 627 165 q 634 92 628 106 q 659 68 641 77 q 757 47 671 63 l 779 43 l 779 -7 q 527 0 595 0 q 267 -7 478 0 l 267 43 q 299 48 288 47 q 393 71 372 59 q 413 95 406 78 q 419 195 419 113 l 419 395 q 286 608 374 465 q 147 825 171 793 q 96 874 123 858 q 1 905 70 890 m 688 1256 l 696 1238 q 492 1021 594 1139 l 432 1021 l 513 1256 q 603 1253 581 1253 q 688 1256 628 1253 z "},"ý":{"ha":694,"x_min":1,"x_max":692,"o":"m 1 594 l 1 642 q 191 634 124 634 q 376 642 261 634 l 376 594 q 359 591 365 592 q 309 577 318 585 q 299 557 299 569 q 313 512 299 547 l 415 258 l 496 497 q 509 555 509 536 q 500 575 509 566 q 454 594 491 583 l 454 642 q 581 634 531 634 q 692 642 634 634 l 692 594 q 626 566 641 578 q 594 516 611 553 q 491 243 578 479 q 349 -123 382 -56 q 250 -255 303 -218 q 140 -292 196 -292 q 79 -284 118 -292 q 55 -206 64 -231 q 22 -134 45 -181 l 60 -110 q 119 -153 95 -142 q 168 -163 142 -163 q 249 -131 212 -163 q 327 20 285 -98 l 134 457 q 79 556 98 540 q 1 594 61 573 m 514 966 l 523 948 q 318 730 420 848 l 258 730 l 339 966 q 429 963 407 963 q 514 966 454 963 z "},"Þ":{"ha":940,"x_min":7,"x_max":895,"o":"m 7 -7 l 7 43 q 140 75 121 60 q 157 118 154 86 q 161 470 161 149 q 158 809 161 765 q 142 868 156 854 q 71 893 127 883 q 7 905 31 900 l 7 955 q 270 947 140 947 q 520 955 401 947 l 520 905 q 454 893 493 899 q 376 857 387 882 q 368 747 369 843 l 600 747 q 699 739 636 747 q 805 700 762 730 q 872 618 848 669 q 895 503 895 568 q 858 356 895 422 q 751 250 821 291 q 610 203 681 209 q 462 195 503 195 l 368 195 q 379 81 368 96 q 456 56 391 66 l 540 43 l 540 -7 q 281 0 432 0 q 7 -7 121 0 m 368 271 l 408 271 q 524 275 515 274 q 600 304 563 281 q 659 370 637 327 q 680 475 680 412 q 664 566 680 525 q 617 633 648 606 q 546 666 585 659 q 456 672 507 672 l 368 672 l 367 445 q 368 271 367 394 z "},"þ":{"ha":753,"x_min":-1,"x_max":708,"o":"m 291 529 q 401 633 371 616 q 496 658 445 658 q 646 583 583 658 q 708 368 708 509 q 609 91 708 199 q 385 -17 510 -17 q 335 -11 359 -17 q 288 7 311 -5 l 288 -44 q 294 -199 288 -177 q 308 -219 297 -212 q 409 -251 319 -226 l 409 -298 q 201 -291 274 -291 q -1 -298 130 -291 l -1 -251 q 85 -221 66 -233 q 103 -199 98 -212 q 110 -49 109 -185 l 112 393 l 110 800 q 99 841 110 828 q 69 853 88 853 q 8 848 43 853 l 8 897 q 166 940 116 922 q 275 989 217 958 l 309 968 q 291 529 291 806 m 288 97 q 341 65 315 76 q 389 54 366 54 q 474 94 446 54 q 519 291 519 159 q 475 481 519 419 q 397 526 444 526 q 327 494 357 526 q 290 391 296 463 q 288 97 288 364 z "},"×":{"ha":926,"x_min":113,"x_max":814,"o":"m 113 717 l 201 805 l 464 542 l 726 805 l 814 716 l 553 454 l 812 194 l 724 106 l 464 366 l 203 106 l 115 194 l 376 454 l 113 717 z "},"¹":{"ha":478,"x_min":98,"x_max":384,"o":"m 98 863 l 98 897 q 292 972 207 928 l 314 960 q 307 850 309 920 q 304 682 304 781 q 309 520 304 533 q 366 494 315 502 q 384 492 372 494 l 384 454 q 245 459 281 459 q 104 454 218 459 l 104 492 q 179 517 172 504 q 186 780 186 531 q 178 860 186 846 q 156 869 172 869 q 98 863 137 869 z "},"²":{"ha":478,"x_min":28,"x_max":429,"o":"m 104 794 l 60 794 q 91 925 82 856 q 157 963 122 950 q 230 975 191 975 q 351 938 307 975 q 394 845 394 900 q 375 768 394 807 q 312 681 357 729 q 180 559 286 652 l 274 558 q 351 565 338 558 q 386 610 363 571 l 429 610 q 385 497 406 559 q 369 454 374 468 q 204 458 274 458 q 28 454 139 458 l 28 492 q 190 654 146 606 q 257 755 233 703 q 271 810 271 784 q 252 860 271 840 q 201 880 232 880 q 148 860 174 880 q 104 794 121 840 z "},"³":{"ha":478,"x_min":52,"x_max":410,"o":"m 131 828 l 86 828 q 109 939 100 884 q 180 964 146 956 q 242 972 213 972 q 340 943 307 972 q 374 871 374 914 q 353 809 374 839 q 296 764 331 780 q 368 734 345 755 q 410 635 410 697 q 347 499 410 555 q 172 444 283 444 q 52 466 115 444 q 73 597 66 530 l 115 597 q 140 522 119 544 q 194 500 161 500 q 251 526 228 500 q 273 600 273 552 q 247 673 273 646 q 180 700 220 700 q 149 696 169 700 l 149 739 q 240 782 215 756 q 264 836 264 807 q 248 876 264 860 q 206 892 232 892 q 164 876 183 892 q 131 828 145 860 z "},"½":{"ha":1143,"x_min":105,"x_max":1082,"o":"m 105 863 l 105 897 q 299 972 214 928 l 321 960 q 313 850 316 920 q 311 682 311 781 q 315 520 311 533 q 372 494 322 502 q 391 492 378 494 l 391 454 q 252 459 288 459 q 111 454 224 459 l 111 492 q 186 517 179 504 q 193 780 193 531 q 185 860 193 846 q 163 869 179 869 q 105 863 144 869 m 786 970 l 888 970 l 342 -55 l 240 -55 l 786 970 m 757 275 l 713 275 q 744 406 735 337 q 810 444 775 431 q 883 456 844 456 q 1004 419 960 456 q 1047 326 1047 381 q 1028 249 1047 288 q 965 162 1010 210 q 833 40 939 134 l 927 39 q 1004 46 991 39 q 1039 92 1016 52 l 1082 92 q 1038 -22 1059 40 q 1022 -65 1027 -51 q 857 -60 927 -60 q 682 -65 792 -60 l 682 -27 q 843 136 800 87 q 910 236 886 184 q 924 292 924 265 q 905 341 924 321 q 854 361 885 361 q 801 341 827 361 q 757 275 774 321 z "},"¼":{"ha":1143,"x_min":104,"x_max":1096,"o":"m 104 863 l 104 897 q 298 972 213 928 l 320 960 q 313 850 315 920 q 310 682 310 781 q 315 520 310 533 q 372 494 321 502 q 390 492 378 494 l 390 454 q 251 459 287 459 q 111 454 224 459 l 111 492 q 185 517 178 504 q 193 780 193 531 q 184 860 193 846 q 162 869 178 869 q 104 863 143 869 m 793 963 l 895 963 l 349 -62 l 248 -62 l 793 963 m 806 -47 l 806 -10 q 847 -2 818 -7 q 881 8 876 4 q 892 24 888 14 q 895 79 895 34 q 674 75 755 79 q 675 121 675 106 q 674 166 675 136 l 842 363 q 895 430 863 388 q 947 449 930 441 q 995 478 964 457 l 1016 463 q 1006 155 1006 344 q 1085 166 1046 157 l 1096 151 q 1063 77 1077 118 q 1006 79 1034 79 q 1009 23 1006 31 q 1027 4 1013 12 q 1085 -10 1036 -1 l 1085 -47 q 945 -43 996 -43 q 806 -47 897 -43 m 895 155 l 895 338 l 745 155 l 895 155 z "},"¾":{"ha":1143,"x_min":64,"x_max":1089,"o":"m 143 828 l 98 828 q 121 939 113 884 q 192 964 159 956 q 254 972 225 972 q 353 943 319 972 q 387 871 387 914 q 365 809 387 839 q 308 764 343 780 q 380 734 357 755 q 422 635 422 697 q 359 499 422 555 q 184 444 296 444 q 64 466 127 444 q 85 597 79 530 l 127 597 q 152 522 131 544 q 206 500 173 500 q 263 526 240 500 q 286 600 286 552 q 259 673 286 646 q 192 700 233 700 q 161 696 181 700 l 161 739 q 252 782 227 756 q 277 836 277 807 q 260 876 277 860 q 218 892 244 892 q 176 876 195 892 q 143 828 157 860 m 786 970 l 888 970 l 342 -55 l 240 -55 l 786 970 m 800 -47 l 800 -10 q 840 -2 811 -7 q 874 8 869 4 q 885 24 882 14 q 888 79 888 34 q 667 75 748 79 q 668 121 668 106 q 667 166 668 136 l 836 363 q 888 430 857 388 q 940 449 923 441 q 988 478 957 457 l 1009 463 q 999 155 999 344 q 1078 166 1040 157 l 1089 151 q 1056 77 1070 118 q 999 79 1027 79 q 1002 23 999 31 q 1020 4 1006 12 q 1078 -10 1029 -1 l 1078 -47 q 938 -43 989 -43 q 800 -47 890 -43 m 888 155 l 888 338 l 738 155 l 888 155 z "},"­":{"ha":492,"x_min":37,"x_max":451,"o":"m 54 238 l 37 257 q 79 397 64 329 q 227 393 146 393 q 435 397 352 393 l 451 377 q 407 238 425 310 q 182 242 302 242 q 54 238 106 242 z "},"¯":{"ha":694,"x_min":-13,"x_max":707,"o":"m -13 1114 l 707 1114 l 707 1026 l -13 1026 l -13 1114 z "},"¤":{"ha":956,"x_min":113,"x_max":807,"o":"m 637 714 l 725 803 l 807 719 l 720 631 q 773 454 773 547 q 720 279 773 363 l 807 193 l 725 109 l 637 196 q 550 155 595 169 q 458 142 506 142 q 370 155 414 142 q 284 196 326 169 l 197 109 l 113 193 l 201 279 q 147 456 147 363 q 201 631 147 546 l 113 719 l 195 803 l 284 714 q 372 755 328 741 q 460 768 416 768 q 550 755 506 768 q 637 714 594 741 m 656 455 q 598 593 656 536 q 460 650 541 650 q 322 593 379 650 q 264 455 264 536 q 322 316 264 374 q 460 259 379 259 q 598 316 541 259 q 656 455 656 374 z "}}}
